<?xml version="1.0" encoding="utf-8"?>
<svg xmlns="http://www.w3.org/2000/svg" xmlns:xlink="http://www.w3.org/1999/xlink" width="476.25" height="317" viewBox="0 0 1905 1268">
<defs>
  <clipPath id="clip470">
    <rect x="0" y="0" width="1905" height="1268"/>
  </clipPath>
</defs>
<defs>
  <clipPath id="clip471">
    <rect x="381" y="0" width="1335" height="1268"/>
  </clipPath>
</defs>
<defs>
  <clipPath id="clip472">
    <rect x="210" y="31" width="1664" height="1067"/>
  </clipPath>
</defs>
<path clip-path="url(#clip472)" d="M257.353 1056.1 L258.924 1055.9 L260.495 1055.69 L262.065 1055.49 L263.636 1055.27 L265.207 1055.06 L266.777 1054.84 L268.348 1054.61 L269.919 1054.39 L271.489 1054.16 L273.06 1053.92 L274.63 1053.68 L276.201 1053.44 L277.772 1053.2 L279.342 1052.95 L280.913 1052.7 L282.484 1052.44 L284.054 1052.18 L285.625 1051.91 L287.196 1051.65 L288.766 1051.37 L290.337 1051.1 L291.908 1050.81 L293.478 1050.53 L295.049 1050.24 L296.62 1049.94 L298.19 1049.64 L299.761 1049.34 L301.332 1049.03 L302.902 1048.72 L304.473 1048.4 L306.044 1048.08 L307.614 1047.75 L309.185 1047.42 L310.756 1047.09 L312.326 1046.75 L313.897 1046.4 L315.467 1046.05 L317.038 1045.69 L318.609 1045.33 L320.179 1044.96 L321.75 1044.59 L323.321 1044.21 L324.891 1043.83 L326.462 1043.44 L328.033 1043.04 L329.603 1042.64 L331.174 1042.24 L332.745 1041.83 L334.315 1041.41 L335.886 1040.99 L337.457 1040.56 L339.027 1040.12 L340.598 1039.68 L342.169 1039.23 L343.739 1038.78 L345.31 1038.32 L346.881 1037.85 L348.451 1037.38 L350.022 1036.9 L351.592 1036.41 L353.163 1035.92 L354.734 1035.42 L356.304 1034.92 L357.875 1034.4 L359.446 1033.88 L361.016 1033.36 L362.587 1032.82 L364.158 1032.28 L365.728 1031.73 L367.299 1031.18 L368.87 1030.61 L370.44 1030.04 L372.011 1029.47 L373.582 1028.88 L375.152 1028.29 L376.723 1027.69 L378.294 1027.08 L379.864 1026.46 L381.435 1025.84 L383.006 1025.2 L384.576 1024.56 L386.147 1023.91 L387.718 1023.26 L389.288 1022.59 L390.859 1021.92 L392.429 1021.24 L394 1020.54 L395.571 1019.84 L397.141 1019.14 L398.712 1018.42 L400.283 1017.69 L401.853 1016.96 L403.424 1016.21 L404.995 1015.46 L406.565 1014.7 L408.136 1013.93 L409.707 1013.14 L411.277 1012.35 L412.848 1011.55 L414.419 1010.74 L415.989 1009.92 L417.56 1009.1 L419.131 1008.26 L420.701 1007.41 L422.272 1006.55 L423.843 1005.68 L425.413 1004.8 L426.984 1003.91 L428.554 1003.01 L430.125 1002.1 L431.696 1001.18 L433.266 1000.25 L434.837 999.304 L436.408 998.351 L437.978 997.387 L439.549 996.412 L441.12 995.426 L442.69 994.429 L444.261 993.421 L445.832 992.402 L447.402 991.371 L448.973 990.329 L450.544 989.276 L452.114 988.211 L453.685 987.134 L455.256 986.045 L456.826 984.945 L458.397 983.833 L459.968 982.709 L461.538 981.572 L463.109 980.424 L464.68 979.263 L466.25 978.091 L467.821 976.905 L469.391 975.708 L470.962 974.497 L472.533 973.275 L474.103 972.039 L475.674 970.791 L477.245 969.53 L478.815 968.256 L480.386 966.969 L481.957 965.669 L483.527 964.355 L485.098 963.029 L486.669 961.689 L488.239 960.336 L489.81 958.97 L491.381 957.59 L492.951 956.196 L494.522 954.789 L496.093 953.368 L497.663 951.933 L499.234 950.484 L500.805 949.022 L502.375 947.545 L503.946 946.055 L505.516 944.55 L507.087 943.031 L508.658 941.498 L510.228 939.951 L511.799 938.389 L513.37 936.812 L514.94 935.221 L516.511 933.616 L518.082 931.996 L519.652 930.361 L521.223 928.712 L522.794 927.047 L524.364 925.368 L525.935 923.674 L527.506 921.965 L529.076 920.241 L530.647 918.501 L532.218 916.747 L533.788 914.977 L535.359 913.193 L536.93 911.392 L538.5 909.577 L540.071 907.746 L541.642 905.9 L543.212 904.038 L544.783 902.161 L546.353 900.268 L547.924 898.359 L549.495 896.435 L551.065 894.495 L552.636 892.54 L554.207 890.569 L555.777 888.581 L557.348 886.579 L558.919 884.56 L560.489 882.525 L562.06 880.474 L563.631 878.408 L565.201 876.325 L566.772 874.227 L568.343 872.112 L569.913 869.982 L571.484 867.835 L573.055 865.673 L574.625 863.494 L576.196 861.299 L577.767 859.088 L579.337 856.861 L580.908 854.617 L582.478 852.358 L584.049 850.082 L585.62 847.79 L587.19 845.482 L588.761 843.158 L590.332 840.817 L591.902 838.461 L593.473 836.088 L595.044 833.699 L596.614 831.294 L598.185 828.872 L599.756 826.435 L601.326 823.981 L602.897 821.511 L604.468 819.026 L606.038 816.524 L607.609 814.006 L609.18 811.471 L610.75 808.921 L612.321 806.355 L613.892 803.773 L615.462 801.175 L617.033 798.561 L618.604 795.931 L620.174 793.285 L621.745 790.624 L623.315 787.946 L624.886 785.253 L626.457 782.544 L628.027 779.82 L629.598 777.08 L631.169 774.324 L632.739 771.553 L634.31 768.766 L635.881 765.965 L637.451 763.147 L639.022 760.315 L640.593 757.467 L642.163 754.604 L643.734 751.726 L645.305 748.833 L646.875 745.925 L648.446 743.003 L650.017 740.065 L651.587 737.113 L653.158 734.146 L654.729 731.165 L656.299 728.169 L657.87 725.159 L659.44 722.134 L661.011 719.095 L662.582 716.043 L664.152 712.976 L665.723 709.895 L667.294 706.801 L668.864 703.693 L670.435 700.571 L672.006 697.436 L673.576 694.288 L675.147 691.126 L676.718 687.951 L678.288 684.764 L679.859 681.563 L681.43 678.35 L683 675.124 L684.571 671.885 L686.142 668.634 L687.712 665.371 L689.283 662.096 L690.854 658.809 L692.424 655.51 L693.995 652.199 L695.566 648.877 L697.136 645.543 L698.707 642.198 L700.277 638.843 L701.848 635.476 L703.419 632.098 L704.989 628.71 L706.56 625.312 L708.131 621.903 L709.701 618.484 L711.272 615.055 L712.843 611.616 L714.413 608.168 L715.984 604.71 L717.555 601.243 L719.125 597.768 L720.696 594.283 L722.267 590.789 L723.837 587.287 L725.408 583.777 L726.979 580.259 L728.549 576.733 L730.12 573.199 L731.691 569.657 L733.261 566.108 L734.832 562.553 L736.402 558.99 L737.973 555.42 L739.544 551.844 L741.114 548.262 L742.685 544.674 L744.256 541.08 L745.826 537.48 L747.397 533.875 L748.968 530.265 L750.538 526.65 L752.109 523.03 L753.68 519.406 L755.25 515.777 L756.821 512.145 L758.392 508.508 L759.962 504.868 L761.533 501.225 L763.104 497.579 L764.674 493.93 L766.245 490.278 L767.816 486.625 L769.386 482.969 L770.957 479.311 L772.528 475.652 L774.098 471.991 L775.669 468.329 L777.239 464.667 L778.81 461.004 L780.381 457.341 L781.951 453.677 L783.522 450.014 L785.093 446.352 L786.663 442.69 L788.234 439.03 L789.805 435.371 L791.375 431.713 L792.946 428.057 L794.517 424.404 L796.087 420.753 L797.658 417.104 L799.229 413.459 L800.799 409.817 L802.37 406.178 L803.941 402.543 L805.511 398.913 L807.082 395.287 L808.653 391.665 L810.223 388.049 L811.794 384.437 L813.364 380.832 L814.935 377.232 L816.506 373.638 L818.076 370.051 L819.647 366.471 L821.218 362.897 L822.788 359.331 L824.359 355.772 L825.93 352.222 L827.5 348.679 L829.071 345.145 L830.642 341.62 L832.212 338.104 L833.783 334.597 L835.354 331.1 L836.924 327.613 L838.495 324.137 L840.066 320.671 L841.636 317.215 L843.207 313.771 L844.778 310.339 L846.348 306.918 L847.919 303.509 L849.49 300.113 L851.06 296.73 L852.631 293.359 L854.201 290.002 L855.772 286.658 L857.343 283.328 L858.913 280.013 L860.484 276.712 L862.055 273.425 L863.625 270.154 L865.196 266.898 L866.767 263.658 L868.337 260.434 L869.908 257.226 L871.479 254.035 L873.049 250.86 L874.62 247.703 L876.191 244.564 L877.761 241.442 L879.332 238.338 L880.903 235.252 L882.473 232.185 L884.044 229.137 L885.615 226.108 L887.185 223.099 L888.756 220.109 L890.326 217.14 L891.897 214.191 L893.468 211.263 L895.038 208.355 L896.609 205.469 L898.18 202.604 L899.75 199.761 L901.321 196.94 L902.892 194.141 L904.462 191.365 L906.033 188.612 L907.604 185.882 L909.174 183.176 L910.745 180.493 L912.316 177.834 L913.886 175.199 L915.457 172.589 L917.028 170.003 L918.598 167.442 L920.169 164.907 L921.74 162.397 L923.31 159.913 L924.881 157.455 L926.452 155.023 L928.022 152.618 L929.593 150.239 L931.163 147.888 L932.734 145.563 L934.305 143.266 L935.875 140.997 L937.446 138.755 L939.017 136.542 L940.587 134.357 L942.158 132.201 L943.729 130.074 L945.299 127.975 L946.87 125.906 L948.441 123.867 L950.011 121.857 L951.582 119.877 L953.153 117.927 L954.723 116.007 L956.294 114.118 L957.865 112.259 L959.435 110.432 L961.006 108.635 L962.577 106.87 L964.147 105.136 L965.718 103.434 L967.288 101.764 L968.859 100.126 L970.43 98.5195 L972 96.9457 L973.571 95.4044 L975.142 93.8958 L976.712 92.42 L978.283 90.9771 L979.854 89.5674 L981.424 88.191 L982.995 86.848 L984.566 85.5386 L986.136 84.2629 L987.707 83.021 L989.278 81.8131 L990.848 80.6394 L992.419 79.4998 L993.99 78.3946 L995.56 77.3239 L997.131 76.2878 L998.702 75.2864 L1000.27 74.3198 L1001.84 73.3881 L1003.41 72.4914 L1004.98 71.6298 L1006.55 70.8034 L1008.13 70.0123 L1009.7 69.2566 L1011.27 68.5363 L1012.84 67.8516 L1014.41 67.2024 L1015.98 66.589 L1017.55 66.0113 L1019.12 65.4693 L1020.69 64.9633 L1022.26 64.4932 L1023.83 64.059 L1025.4 63.6608 L1026.97 63.2988 L1028.54 62.9728 L1030.11 62.6829 L1031.69 62.4292 L1033.26 62.2117 L1034.83 62.0304 L1036.4 61.8854 L1037.97 61.7766 L1039.54 61.704 L1041.11 61.6677 L1042.68 61.6677 L1044.25 61.704 L1045.82 61.7766 L1047.39 61.8854 L1048.96 62.0304 L1050.53 62.2117 L1052.1 62.4292 L1053.67 62.6829 L1055.25 62.9728 L1056.82 63.2988 L1058.39 63.6608 L1059.96 64.059 L1061.53 64.4932 L1063.1 64.9633 L1064.67 65.4693 L1066.24 66.0113 L1067.81 66.589 L1069.38 67.2024 L1070.95 67.8516 L1072.52 68.5363 L1074.09 69.2566 L1075.66 70.0123 L1077.23 70.8034 L1078.8 71.6298 L1080.38 72.4914 L1081.95 73.3881 L1083.52 74.3198 L1085.09 75.2864 L1086.66 76.2878 L1088.23 77.3239 L1089.8 78.3946 L1091.37 79.4998 L1092.94 80.6394 L1094.51 81.8131 L1096.08 83.021 L1097.65 84.2629 L1099.22 85.5386 L1100.79 86.848 L1102.36 88.191 L1103.94 89.5674 L1105.51 90.9771 L1107.08 92.42 L1108.65 93.8958 L1110.22 95.4044 L1111.79 96.9457 L1113.36 98.5195 L1114.93 100.126 L1116.5 101.764 L1118.07 103.434 L1119.64 105.136 L1121.21 106.87 L1122.78 108.635 L1124.35 110.432 L1125.92 112.259 L1127.5 114.118 L1129.07 116.007 L1130.64 117.927 L1132.21 119.877 L1133.78 121.857 L1135.35 123.867 L1136.92 125.906 L1138.49 127.975 L1140.06 130.074 L1141.63 132.201 L1143.2 134.357 L1144.77 136.542 L1146.34 138.755 L1147.91 140.997 L1149.48 143.266 L1151.05 145.563 L1152.63 147.888 L1154.2 150.239 L1155.77 152.618 L1157.34 155.023 L1158.91 157.455 L1160.48 159.913 L1162.05 162.397 L1163.62 164.907 L1165.19 167.442 L1166.76 170.003 L1168.33 172.589 L1169.9 175.199 L1171.47 177.834 L1173.04 180.493 L1174.61 183.176 L1176.19 185.882 L1177.76 188.612 L1179.33 191.365 L1180.9 194.141 L1182.47 196.94 L1184.04 199.761 L1185.61 202.604 L1187.18 205.469 L1188.75 208.355 L1190.32 211.263 L1191.89 214.191 L1193.46 217.14 L1195.03 220.109 L1196.6 223.099 L1198.17 226.108 L1199.75 229.137 L1201.32 232.185 L1202.89 235.252 L1204.46 238.338 L1206.03 241.442 L1207.6 244.564 L1209.17 247.703 L1210.74 250.86 L1212.31 254.035 L1213.88 257.226 L1215.45 260.434 L1217.02 263.658 L1218.59 266.898 L1220.16 270.154 L1221.73 273.425 L1223.3 276.712 L1224.88 280.013 L1226.45 283.328 L1228.02 286.658 L1229.59 290.002 L1231.16 293.359 L1232.73 296.73 L1234.3 300.113 L1235.87 303.509 L1237.44 306.918 L1239.01 310.339 L1240.58 313.771 L1242.15 317.215 L1243.72 320.671 L1245.29 324.137 L1246.86 327.613 L1248.44 331.1 L1250.01 334.597 L1251.58 338.104 L1253.15 341.62 L1254.72 345.145 L1256.29 348.679 L1257.86 352.222 L1259.43 355.772 L1261 359.331 L1262.57 362.897 L1264.14 366.471 L1265.71 370.051 L1267.28 373.638 L1268.85 377.232 L1270.42 380.832 L1272 384.437 L1273.57 388.049 L1275.14 391.665 L1276.71 395.287 L1278.28 398.913 L1279.85 402.543 L1281.42 406.178 L1282.99 409.817 L1284.56 413.459 L1286.13 417.104 L1287.7 420.753 L1289.27 424.404 L1290.84 428.057 L1292.41 431.713 L1293.98 435.371 L1295.55 439.03 L1297.13 442.69 L1298.7 446.352 L1300.27 450.014 L1301.84 453.677 L1303.41 457.341 L1304.98 461.004 L1306.55 464.667 L1308.12 468.329 L1309.69 471.991 L1311.26 475.652 L1312.83 479.311 L1314.4 482.969 L1315.97 486.625 L1317.54 490.278 L1319.11 493.93 L1320.69 497.579 L1322.26 501.225 L1323.83 504.868 L1325.4 508.508 L1326.97 512.145 L1328.54 515.777 L1330.11 519.406 L1331.68 523.03 L1333.25 526.65 L1334.82 530.265 L1336.39 533.875 L1337.96 537.48 L1339.53 541.08 L1341.1 544.674 L1342.67 548.262 L1344.25 551.844 L1345.82 555.42 L1347.39 558.99 L1348.96 562.553 L1350.53 566.108 L1352.1 569.657 L1353.67 573.199 L1355.24 576.733 L1356.81 580.259 L1358.38 583.777 L1359.95 587.287 L1361.52 590.789 L1363.09 594.283 L1364.66 597.768 L1366.23 601.243 L1367.81 604.71 L1369.38 608.168 L1370.95 611.616 L1372.52 615.055 L1374.09 618.484 L1375.66 621.903 L1377.23 625.312 L1378.8 628.71 L1380.37 632.098 L1381.94 635.476 L1383.51 638.843 L1385.08 642.198 L1386.65 645.543 L1388.22 648.877 L1389.79 652.199 L1391.36 655.51 L1392.94 658.809 L1394.51 662.096 L1396.08 665.371 L1397.65 668.634 L1399.22 671.885 L1400.79 675.124 L1402.36 678.35 L1403.93 681.563 L1405.5 684.764 L1407.07 687.951 L1408.64 691.126 L1410.21 694.288 L1411.78 697.436 L1413.35 700.571 L1414.92 703.693 L1416.5 706.801 L1418.07 709.895 L1419.64 712.976 L1421.21 716.043 L1422.78 719.095 L1424.35 722.134 L1425.92 725.159 L1427.49 728.169 L1429.06 731.165 L1430.63 734.146 L1432.2 737.113 L1433.77 740.065 L1435.34 743.003 L1436.91 745.925 L1438.48 748.833 L1440.06 751.726 L1441.63 754.604 L1443.2 757.467 L1444.77 760.315 L1446.34 763.147 L1447.91 765.965 L1449.48 768.766 L1451.05 771.553 L1452.62 774.324 L1454.19 777.08 L1455.76 779.82 L1457.33 782.544 L1458.9 785.253 L1460.47 787.946 L1462.04 790.624 L1463.61 793.285 L1465.19 795.931 L1466.76 798.561 L1468.33 801.175 L1469.9 803.773 L1471.47 806.355 L1473.04 808.921 L1474.61 811.471 L1476.18 814.006 L1477.75 816.524 L1479.32 819.026 L1480.89 821.511 L1482.46 823.981 L1484.03 826.435 L1485.6 828.872 L1487.17 831.294 L1488.75 833.699 L1490.32 836.088 L1491.89 838.461 L1493.46 840.817 L1495.03 843.158 L1496.6 845.482 L1498.17 847.79 L1499.74 850.082 L1501.31 852.358 L1502.88 854.617 L1504.45 856.861 L1506.02 859.088 L1507.59 861.299 L1509.16 863.494 L1510.73 865.673 L1512.31 867.835 L1513.88 869.982 L1515.45 872.112 L1517.02 874.227 L1518.59 876.325 L1520.16 878.408 L1521.73 880.474 L1523.3 882.525 L1524.87 884.56 L1526.44 886.579 L1528.01 888.581 L1529.58 890.569 L1531.15 892.54 L1532.72 894.495 L1534.29 896.435 L1535.86 898.359 L1537.44 900.268 L1539.01 902.161 L1540.58 904.038 L1542.15 905.9 L1543.72 907.746 L1545.29 909.577 L1546.86 911.392 L1548.43 913.193 L1550 914.977 L1551.57 916.747 L1553.14 918.501 L1554.71 920.241 L1556.28 921.965 L1557.85 923.674 L1559.42 925.368 L1561 927.047 L1562.57 928.712 L1564.14 930.361 L1565.71 931.996 L1567.28 933.616 L1568.85 935.221 L1570.42 936.812 L1571.99 938.389 L1573.56 939.951 L1575.13 941.498 L1576.7 943.031 L1578.27 944.55 L1579.84 946.055 L1581.41 947.545 L1582.98 949.022 L1584.56 950.484 L1586.13 951.933 L1587.7 953.368 L1589.27 954.789 L1590.84 956.196 L1592.41 957.59 L1593.98 958.97 L1595.55 960.336 L1597.12 961.689 L1598.69 963.029 L1600.26 964.355 L1601.83 965.669 L1603.4 966.969 L1604.97 968.256 L1606.54 969.53 L1608.11 970.791 L1609.69 972.039 L1611.26 973.275 L1612.83 974.497 L1614.4 975.708 L1615.97 976.905 L1617.54 978.091 L1619.11 979.263 L1620.68 980.424 L1622.25 981.572 L1623.82 982.709 L1625.39 983.833 L1626.96 984.945 L1628.53 986.045 L1630.1 987.134 L1631.67 988.211 L1633.25 989.276 L1634.82 990.329 L1636.39 991.371 L1637.96 992.402 L1639.53 993.421 L1641.1 994.429 L1642.67 995.426 L1644.24 996.412 L1645.81 997.387 L1647.38 998.351 L1648.95 999.304 L1650.52 1000.25 L1652.09 1001.18 L1653.66 1002.1 L1655.23 1003.01 L1656.81 1003.91 L1658.38 1004.8 L1659.95 1005.68 L1661.52 1006.55 L1663.09 1007.41 L1664.66 1008.26 L1666.23 1009.1 L1667.8 1009.92 L1669.37 1010.74 L1670.94 1011.55 L1672.51 1012.35 L1674.08 1013.14 L1675.65 1013.93 L1677.22 1014.7 L1678.79 1015.46 L1680.36 1016.21 L1681.94 1016.96 L1683.51 1017.69 L1685.08 1018.42 L1686.65 1019.14 L1688.22 1019.84 L1689.79 1020.54 L1691.36 1021.24 L1692.93 1021.92 L1694.5 1022.59 L1696.07 1023.26 L1697.64 1023.91 L1699.21 1024.56 L1700.78 1025.2 L1702.35 1025.84 L1703.92 1026.46 L1705.5 1027.08 L1707.07 1027.69 L1708.64 1028.29 L1710.21 1028.88 L1711.78 1029.47 L1713.35 1030.04 L1714.92 1030.61 L1716.49 1031.18 L1718.06 1031.73 L1719.63 1032.28 L1721.2 1032.82 L1722.77 1033.36 L1724.34 1033.88 L1725.91 1034.4 L1727.48 1034.92 L1729.06 1035.42 L1730.63 1035.92 L1732.2 1036.41 L1733.77 1036.9 L1735.34 1037.38 L1736.91 1037.85 L1738.48 1038.32 L1740.05 1038.78 L1741.62 1039.23 L1743.19 1039.68 L1744.76 1040.12 L1746.33 1040.56 L1747.9 1040.99 L1749.47 1041.41 L1751.04 1041.83 L1752.62 1042.24 L1754.19 1042.64 L1755.76 1043.04 L1757.33 1043.44 L1758.9 1043.83 L1760.47 1044.21 L1762.04 1044.59 L1763.61 1044.96 L1765.18 1045.33 L1766.75 1045.69 L1768.32 1046.05 L1769.89 1046.4 L1771.46 1046.75 L1773.03 1047.09 L1774.6 1047.42 L1776.17 1047.75 L1777.75 1048.08 L1779.32 1048.4 L1780.89 1048.72 L1782.46 1049.03 L1784.03 1049.34 L1785.6 1049.64 L1787.17 1049.94 L1788.74 1050.24 L1790.31 1050.53 L1791.88 1050.81 L1793.45 1051.1 L1795.02 1051.37 L1796.59 1051.65 L1798.16 1051.91 L1799.73 1052.18 L1801.31 1052.44 L1802.88 1052.7 L1804.45 1052.95 L1806.02 1053.2 L1807.59 1053.44 L1809.16 1053.68 L1810.73 1053.92 L1812.3 1054.16 L1813.87 1054.39 L1815.44 1054.61 L1817.01 1054.84 L1818.58 1055.06 L1820.15 1055.27 L1821.72 1055.49 L1823.29 1055.69 L1824.87 1055.9 L1826.44 1056.1 L1826.44 1067.28 L1824.87 1067.28 L1823.29 1067.28 L1821.72 1067.28 L1820.15 1067.28 L1818.58 1067.28 L1817.01 1067.28 L1815.44 1067.28 L1813.87 1067.28 L1812.3 1067.28 L1810.73 1067.28 L1809.16 1067.28 L1807.59 1067.28 L1806.02 1067.28 L1804.45 1067.28 L1802.88 1067.28 L1801.31 1067.28 L1799.73 1067.28 L1798.16 1067.28 L1796.59 1067.28 L1795.02 1067.28 L1793.45 1067.28 L1791.88 1067.28 L1790.31 1067.28 L1788.74 1067.28 L1787.17 1067.28 L1785.6 1067.28 L1784.03 1067.28 L1782.46 1067.28 L1780.89 1067.28 L1779.32 1067.28 L1777.75 1067.28 L1776.17 1067.28 L1774.6 1067.28 L1773.03 1067.28 L1771.46 1067.28 L1769.89 1067.28 L1768.32 1067.28 L1766.75 1067.28 L1765.18 1067.28 L1763.61 1067.28 L1762.04 1067.28 L1760.47 1067.28 L1758.9 1067.28 L1757.33 1067.28 L1755.76 1067.28 L1754.19 1067.28 L1752.62 1067.28 L1751.04 1067.28 L1749.47 1067.28 L1747.9 1067.28 L1746.33 1067.28 L1744.76 1067.28 L1743.19 1067.28 L1741.62 1067.28 L1740.05 1067.28 L1738.48 1067.28 L1736.91 1067.28 L1735.34 1067.28 L1733.77 1067.28 L1732.2 1067.28 L1730.63 1067.28 L1729.06 1067.28 L1727.48 1067.28 L1725.91 1067.28 L1724.34 1067.28 L1722.77 1067.28 L1721.2 1067.28 L1719.63 1067.28 L1718.06 1067.28 L1716.49 1067.28 L1714.92 1067.28 L1713.35 1067.28 L1711.78 1067.28 L1710.21 1067.28 L1708.64 1067.28 L1707.07 1067.28 L1705.5 1067.28 L1703.92 1067.28 L1702.35 1067.28 L1700.78 1067.28 L1699.21 1067.28 L1697.64 1067.28 L1696.07 1067.28 L1694.5 1067.28 L1692.93 1067.28 L1691.36 1067.28 L1689.79 1067.28 L1688.22 1067.28 L1686.65 1067.28 L1685.08 1067.28 L1683.51 1067.28 L1681.94 1067.28 L1680.36 1067.28 L1678.79 1067.28 L1677.22 1067.28 L1675.65 1067.28 L1674.08 1067.28 L1672.51 1067.28 L1670.94 1067.28 L1669.37 1067.28 L1667.8 1067.28 L1666.23 1067.28 L1664.66 1067.28 L1663.09 1067.28 L1661.52 1067.28 L1659.95 1067.28 L1658.38 1067.28 L1656.81 1067.28 L1655.23 1067.28 L1653.66 1067.28 L1652.09 1067.28 L1650.52 1067.28 L1648.95 1067.28 L1647.38 1067.28 L1645.81 1067.28 L1644.24 1067.28 L1642.67 1067.28 L1641.1 1067.28 L1639.53 1067.28 L1637.96 1067.28 L1636.39 1067.28 L1634.82 1067.28 L1633.25 1067.28 L1631.67 1067.28 L1630.1 1067.28 L1628.53 1067.28 L1626.96 1067.28 L1625.39 1067.28 L1623.82 1067.28 L1622.25 1067.28 L1620.68 1067.28 L1619.11 1067.28 L1617.54 1067.28 L1615.97 1067.28 L1614.4 1067.28 L1612.83 1067.28 L1611.26 1067.28 L1609.69 1067.28 L1608.11 1067.28 L1606.54 1067.28 L1604.97 1067.28 L1603.4 1067.28 L1601.83 1067.28 L1600.26 1067.28 L1598.69 1067.28 L1597.12 1067.28 L1595.55 1067.28 L1593.98 1067.28 L1592.41 1067.28 L1590.84 1067.28 L1589.27 1067.28 L1587.7 1067.28 L1586.13 1067.28 L1584.56 1067.28 L1582.98 1067.28 L1581.41 1067.28 L1579.84 1067.28 L1578.27 1067.28 L1576.7 1067.28 L1575.13 1067.28 L1573.56 1067.28 L1571.99 1067.28 L1570.42 1067.28 L1568.85 1067.28 L1567.28 1067.28 L1565.71 1067.28 L1564.14 1067.28 L1562.57 1067.28 L1561 1067.28 L1559.42 1067.28 L1557.85 1067.28 L1556.28 1067.28 L1554.71 1067.28 L1553.14 1067.28 L1551.57 1067.28 L1550 1067.28 L1548.43 1067.28 L1546.86 1067.28 L1545.29 1067.28 L1543.72 1067.28 L1542.15 1067.28 L1540.58 1067.28 L1539.01 1067.28 L1537.44 1067.28 L1535.86 1067.28 L1534.29 1067.28 L1532.72 1067.28 L1531.15 1067.28 L1529.58 1067.28 L1528.01 1067.28 L1526.44 1067.28 L1524.87 1067.28 L1523.3 1067.28 L1521.73 1067.28 L1520.16 1067.28 L1518.59 1067.28 L1517.02 1067.28 L1515.45 1067.28 L1513.88 1067.28 L1512.31 1067.28 L1510.73 1067.28 L1509.16 1067.28 L1507.59 1067.28 L1506.02 1067.28 L1504.45 1067.28 L1502.88 1067.28 L1501.31 1067.28 L1499.74 1067.28 L1498.17 1067.28 L1496.6 1067.28 L1495.03 1067.28 L1493.46 1067.28 L1491.89 1067.28 L1490.32 1067.28 L1488.75 1067.28 L1487.17 1067.28 L1485.6 1067.28 L1484.03 1067.28 L1482.46 1067.28 L1480.89 1067.28 L1479.32 1067.28 L1477.75 1067.28 L1476.18 1067.28 L1474.61 1067.28 L1473.04 1067.28 L1471.47 1067.28 L1469.9 1067.28 L1468.33 1067.28 L1466.76 1067.28 L1465.19 1067.28 L1463.61 1067.28 L1462.04 1067.28 L1460.47 1067.28 L1458.9 1067.28 L1457.33 1067.28 L1455.76 1067.28 L1454.19 1067.28 L1452.62 1067.28 L1451.05 1067.28 L1449.48 1067.28 L1447.91 1067.28 L1446.34 1067.28 L1444.77 1067.28 L1443.2 1067.28 L1441.63 1067.28 L1440.06 1067.28 L1438.48 1067.28 L1436.91 1067.28 L1435.34 1067.28 L1433.77 1067.28 L1432.2 1067.28 L1430.63 1067.28 L1429.06 1067.28 L1427.49 1067.28 L1425.92 1067.28 L1424.35 1067.28 L1422.78 1067.28 L1421.21 1067.28 L1419.64 1067.28 L1418.07 1067.28 L1416.5 1067.28 L1414.92 1067.28 L1413.35 1067.28 L1411.78 1067.28 L1410.21 1067.28 L1408.64 1067.28 L1407.07 1067.28 L1405.5 1067.28 L1403.93 1067.28 L1402.36 1067.28 L1400.79 1067.28 L1399.22 1067.28 L1397.65 1067.28 L1396.08 1067.28 L1394.51 1067.28 L1392.94 1067.28 L1391.36 1067.28 L1389.79 1067.28 L1388.22 1067.28 L1386.65 1067.28 L1385.08 1067.28 L1383.51 1067.28 L1381.94 1067.28 L1380.37 1067.28 L1378.8 1067.28 L1377.23 1067.28 L1375.66 1067.28 L1374.09 1067.28 L1372.52 1067.28 L1370.95 1067.28 L1369.38 1067.28 L1367.81 1067.28 L1366.23 1067.28 L1364.66 1067.28 L1363.09 1067.28 L1361.52 1067.28 L1359.95 1067.28 L1358.38 1067.28 L1356.81 1067.28 L1355.24 1067.28 L1353.67 1067.28 L1352.1 1067.28 L1350.53 1067.28 L1348.96 1067.28 L1347.39 1067.28 L1345.82 1067.28 L1344.25 1067.28 L1342.67 1067.28 L1341.1 1067.28 L1339.53 1067.28 L1337.96 1067.28 L1336.39 1067.28 L1334.82 1067.28 L1333.25 1067.28 L1331.68 1067.28 L1330.11 1067.28 L1328.54 1067.28 L1326.97 1067.28 L1325.4 1067.28 L1323.83 1067.28 L1322.26 1067.28 L1320.69 1067.28 L1319.11 1067.28 L1317.54 1067.28 L1315.97 1067.28 L1314.4 1067.28 L1312.83 1067.28 L1311.26 1067.28 L1309.69 1067.28 L1308.12 1067.28 L1306.55 1067.28 L1304.98 1067.28 L1303.41 1067.28 L1301.84 1067.28 L1300.27 1067.28 L1298.7 1067.28 L1297.13 1067.28 L1295.55 1067.28 L1293.98 1067.28 L1292.41 1067.28 L1290.84 1067.28 L1289.27 1067.28 L1287.7 1067.28 L1286.13 1067.28 L1284.56 1067.28 L1282.99 1067.28 L1281.42 1067.28 L1279.85 1067.28 L1278.28 1067.28 L1276.71 1067.28 L1275.14 1067.28 L1273.57 1067.28 L1272 1067.28 L1270.42 1067.28 L1268.85 1067.28 L1267.28 1067.28 L1265.71 1067.28 L1264.14 1067.28 L1262.57 1067.28 L1261 1067.28 L1259.43 1067.28 L1257.86 1067.28 L1256.29 1067.28 L1254.72 1067.28 L1253.15 1067.28 L1251.58 1067.28 L1250.01 1067.28 L1248.44 1067.28 L1246.86 1067.28 L1245.29 1067.28 L1243.72 1067.28 L1242.15 1067.28 L1240.58 1067.28 L1239.01 1067.28 L1237.44 1067.28 L1235.87 1067.28 L1234.3 1067.28 L1232.73 1067.28 L1231.16 1067.28 L1229.59 1067.28 L1228.02 1067.28 L1226.45 1067.28 L1224.88 1067.28 L1223.3 1067.28 L1221.73 1067.28 L1220.16 1067.28 L1218.59 1067.28 L1217.02 1067.28 L1215.45 1067.28 L1213.88 1067.28 L1212.31 1067.28 L1210.74 1067.28 L1209.17 1067.28 L1207.6 1067.28 L1206.03 1067.28 L1204.46 1067.28 L1202.89 1067.28 L1201.32 1067.28 L1199.75 1067.28 L1198.17 1067.28 L1196.6 1067.28 L1195.03 1067.28 L1193.46 1067.28 L1191.89 1067.28 L1190.32 1067.28 L1188.75 1067.28 L1187.18 1067.28 L1185.61 1067.28 L1184.04 1067.28 L1182.47 1067.28 L1180.9 1067.28 L1179.33 1067.28 L1177.76 1067.28 L1176.19 1067.28 L1174.61 1067.28 L1173.04 1067.28 L1171.47 1067.28 L1169.9 1067.28 L1168.33 1067.28 L1166.76 1067.28 L1165.19 1067.28 L1163.62 1067.28 L1162.05 1067.28 L1160.48 1067.28 L1158.91 1067.28 L1157.34 1067.28 L1155.77 1067.28 L1154.2 1067.28 L1152.63 1067.28 L1151.05 1067.28 L1149.48 1067.28 L1147.91 1067.28 L1146.34 1067.28 L1144.77 1067.28 L1143.2 1067.28 L1141.63 1067.28 L1140.06 1067.28 L1138.49 1067.28 L1136.92 1067.28 L1135.35 1067.28 L1133.78 1067.28 L1132.21 1067.28 L1130.64 1067.28 L1129.07 1067.28 L1127.5 1067.28 L1125.92 1067.28 L1124.35 1067.28 L1122.78 1067.28 L1121.21 1067.28 L1119.64 1067.28 L1118.07 1067.28 L1116.5 1067.28 L1114.93 1067.28 L1113.36 1067.28 L1111.79 1067.28 L1110.22 1067.28 L1108.65 1067.28 L1107.08 1067.28 L1105.51 1067.28 L1103.94 1067.28 L1102.36 1067.28 L1100.79 1067.28 L1099.22 1067.28 L1097.65 1067.28 L1096.08 1067.28 L1094.51 1067.28 L1092.94 1067.28 L1091.37 1067.28 L1089.8 1067.28 L1088.23 1067.28 L1086.66 1067.28 L1085.09 1067.28 L1083.52 1067.28 L1081.95 1067.28 L1080.38 1067.28 L1078.8 1067.28 L1077.23 1067.28 L1075.66 1067.28 L1074.09 1067.28 L1072.52 1067.28 L1070.95 1067.28 L1069.38 1067.28 L1067.81 1067.28 L1066.24 1067.28 L1064.67 1067.28 L1063.1 1067.28 L1061.53 1067.28 L1059.96 1067.28 L1058.39 1067.28 L1056.82 1067.28 L1055.25 1067.28 L1053.67 1067.28 L1052.1 1067.28 L1050.53 1067.28 L1048.96 1067.28 L1047.39 1067.28 L1045.82 1067.28 L1044.25 1067.28 L1042.68 1067.28 L1041.11 1067.28 L1039.54 1067.28 L1037.97 1067.28 L1036.4 1067.28 L1034.83 1067.28 L1033.26 1067.28 L1031.69 1067.28 L1030.11 1067.28 L1028.54 1067.28 L1026.97 1067.28 L1025.4 1067.28 L1023.83 1067.28 L1022.26 1067.28 L1020.69 1067.28 L1019.12 1067.28 L1017.55 1067.28 L1015.98 1067.28 L1014.41 1067.28 L1012.84 1067.28 L1011.27 1067.28 L1009.7 1067.28 L1008.13 1067.28 L1006.55 1067.28 L1004.98 1067.28 L1003.41 1067.28 L1001.84 1067.28 L1000.27 1067.28 L998.702 1067.28 L997.131 1067.28 L995.56 1067.28 L993.99 1067.28 L992.419 1067.28 L990.848 1067.28 L989.278 1067.28 L987.707 1067.28 L986.136 1067.28 L984.566 1067.28 L982.995 1067.28 L981.424 1067.28 L979.854 1067.28 L978.283 1067.28 L976.712 1067.28 L975.142 1067.28 L973.571 1067.28 L972 1067.28 L970.43 1067.28 L968.859 1067.28 L967.288 1067.28 L965.718 1067.28 L964.147 1067.28 L962.577 1067.28 L961.006 1067.28 L959.435 1067.28 L957.865 1067.28 L956.294 1067.28 L954.723 1067.28 L953.153 1067.28 L951.582 1067.28 L950.011 1067.28 L948.441 1067.28 L946.87 1067.28 L945.299 1067.28 L943.729 1067.28 L942.158 1067.28 L940.587 1067.28 L939.017 1067.28 L937.446 1067.28 L935.875 1067.28 L934.305 1067.28 L932.734 1067.28 L931.163 1067.28 L929.593 1067.28 L928.022 1067.28 L926.452 1067.28 L924.881 1067.28 L923.31 1067.28 L921.74 1067.28 L920.169 1067.28 L918.598 1067.28 L917.028 1067.28 L915.457 1067.28 L913.886 1067.28 L912.316 1067.28 L910.745 1067.28 L909.174 1067.28 L907.604 1067.28 L906.033 1067.28 L904.462 1067.28 L902.892 1067.28 L901.321 1067.28 L899.75 1067.28 L898.18 1067.28 L896.609 1067.28 L895.038 1067.28 L893.468 1067.28 L891.897 1067.28 L890.326 1067.28 L888.756 1067.28 L887.185 1067.28 L885.615 1067.28 L884.044 1067.28 L882.473 1067.28 L880.903 1067.28 L879.332 1067.28 L877.761 1067.28 L876.191 1067.28 L874.62 1067.28 L873.049 1067.28 L871.479 1067.28 L869.908 1067.28 L868.337 1067.28 L866.767 1067.28 L865.196 1067.28 L863.625 1067.28 L862.055 1067.28 L860.484 1067.28 L858.913 1067.28 L857.343 1067.28 L855.772 1067.28 L854.201 1067.28 L852.631 1067.28 L851.06 1067.28 L849.49 1067.28 L847.919 1067.28 L846.348 1067.28 L844.778 1067.28 L843.207 1067.28 L841.636 1067.28 L840.066 1067.28 L838.495 1067.28 L836.924 1067.28 L835.354 1067.28 L833.783 1067.28 L832.212 1067.28 L830.642 1067.28 L829.071 1067.28 L827.5 1067.28 L825.93 1067.28 L824.359 1067.28 L822.788 1067.28 L821.218 1067.28 L819.647 1067.28 L818.076 1067.28 L816.506 1067.28 L814.935 1067.28 L813.364 1067.28 L811.794 1067.28 L810.223 1067.28 L808.653 1067.28 L807.082 1067.28 L805.511 1067.28 L803.941 1067.28 L802.37 1067.28 L800.799 1067.28 L799.229 1067.28 L797.658 1067.28 L796.087 1067.28 L794.517 1067.28 L792.946 1067.28 L791.375 1067.28 L789.805 1067.28 L788.234 1067.28 L786.663 1067.28 L785.093 1067.28 L783.522 1067.28 L781.951 1067.28 L780.381 1067.28 L778.81 1067.28 L777.239 1067.28 L775.669 1067.28 L774.098 1067.28 L772.528 1067.28 L770.957 1067.28 L769.386 1067.28 L767.816 1067.28 L766.245 1067.28 L764.674 1067.28 L763.104 1067.28 L761.533 1067.28 L759.962 1067.28 L758.392 1067.28 L756.821 1067.28 L755.25 1067.28 L753.68 1067.28 L752.109 1067.28 L750.538 1067.28 L748.968 1067.28 L747.397 1067.28 L745.826 1067.28 L744.256 1067.28 L742.685 1067.28 L741.114 1067.28 L739.544 1067.28 L737.973 1067.28 L736.402 1067.28 L734.832 1067.28 L733.261 1067.28 L731.691 1067.28 L730.12 1067.28 L728.549 1067.28 L726.979 1067.28 L725.408 1067.28 L723.837 1067.28 L722.267 1067.28 L720.696 1067.28 L719.125 1067.28 L717.555 1067.28 L715.984 1067.28 L714.413 1067.28 L712.843 1067.28 L711.272 1067.28 L709.701 1067.28 L708.131 1067.28 L706.56 1067.28 L704.989 1067.28 L703.419 1067.28 L701.848 1067.28 L700.277 1067.28 L698.707 1067.28 L697.136 1067.28 L695.566 1067.28 L693.995 1067.28 L692.424 1067.28 L690.854 1067.28 L689.283 1067.28 L687.712 1067.28 L686.142 1067.28 L684.571 1067.28 L683 1067.28 L681.43 1067.28 L679.859 1067.28 L678.288 1067.28 L676.718 1067.28 L675.147 1067.28 L673.576 1067.28 L672.006 1067.28 L670.435 1067.28 L668.864 1067.28 L667.294 1067.28 L665.723 1067.28 L664.152 1067.28 L662.582 1067.28 L661.011 1067.28 L659.44 1067.28 L657.87 1067.28 L656.299 1067.28 L654.729 1067.28 L653.158 1067.28 L651.587 1067.28 L650.017 1067.28 L648.446 1067.28 L646.875 1067.28 L645.305 1067.28 L643.734 1067.28 L642.163 1067.28 L640.593 1067.28 L639.022 1067.28 L637.451 1067.28 L635.881 1067.28 L634.31 1067.28 L632.739 1067.28 L631.169 1067.28 L629.598 1067.28 L628.027 1067.28 L626.457 1067.28 L624.886 1067.28 L623.315 1067.28 L621.745 1067.28 L620.174 1067.28 L618.604 1067.28 L617.033 1067.28 L615.462 1067.28 L613.892 1067.28 L612.321 1067.28 L610.75 1067.28 L609.18 1067.28 L607.609 1067.28 L606.038 1067.28 L604.468 1067.28 L602.897 1067.28 L601.326 1067.28 L599.756 1067.28 L598.185 1067.28 L596.614 1067.28 L595.044 1067.28 L593.473 1067.28 L591.902 1067.28 L590.332 1067.28 L588.761 1067.28 L587.19 1067.28 L585.62 1067.28 L584.049 1067.28 L582.478 1067.28 L580.908 1067.28 L579.337 1067.28 L577.767 1067.28 L576.196 1067.28 L574.625 1067.28 L573.055 1067.28 L571.484 1067.28 L569.913 1067.28 L568.343 1067.28 L566.772 1067.28 L565.201 1067.28 L563.631 1067.28 L562.06 1067.28 L560.489 1067.28 L558.919 1067.28 L557.348 1067.28 L555.777 1067.28 L554.207 1067.28 L552.636 1067.28 L551.065 1067.28 L549.495 1067.28 L547.924 1067.28 L546.353 1067.28 L544.783 1067.28 L543.212 1067.28 L541.642 1067.28 L540.071 1067.28 L538.5 1067.28 L536.93 1067.28 L535.359 1067.28 L533.788 1067.28 L532.218 1067.28 L530.647 1067.28 L529.076 1067.28 L527.506 1067.28 L525.935 1067.28 L524.364 1067.28 L522.794 1067.28 L521.223 1067.28 L519.652 1067.28 L518.082 1067.28 L516.511 1067.28 L514.94 1067.28 L513.37 1067.28 L511.799 1067.28 L510.228 1067.28 L508.658 1067.28 L507.087 1067.28 L505.516 1067.28 L503.946 1067.28 L502.375 1067.28 L500.805 1067.28 L499.234 1067.28 L497.663 1067.28 L496.093 1067.28 L494.522 1067.28 L492.951 1067.28 L491.381 1067.28 L489.81 1067.28 L488.239 1067.28 L486.669 1067.28 L485.098 1067.28 L483.527 1067.28 L481.957 1067.28 L480.386 1067.28 L478.815 1067.28 L477.245 1067.28 L475.674 1067.28 L474.103 1067.28 L472.533 1067.28 L470.962 1067.28 L469.391 1067.28 L467.821 1067.28 L466.25 1067.28 L464.68 1067.28 L463.109 1067.28 L461.538 1067.28 L459.968 1067.28 L458.397 1067.28 L456.826 1067.28 L455.256 1067.28 L453.685 1067.28 L452.114 1067.28 L450.544 1067.28 L448.973 1067.28 L447.402 1067.28 L445.832 1067.28 L444.261 1067.28 L442.69 1067.28 L441.12 1067.28 L439.549 1067.28 L437.978 1067.28 L436.408 1067.28 L434.837 1067.28 L433.266 1067.28 L431.696 1067.28 L430.125 1067.28 L428.554 1067.28 L426.984 1067.28 L425.413 1067.28 L423.843 1067.28 L422.272 1067.28 L420.701 1067.28 L419.131 1067.28 L417.56 1067.28 L415.989 1067.28 L414.419 1067.28 L412.848 1067.28 L411.277 1067.28 L409.707 1067.28 L408.136 1067.28 L406.565 1067.28 L404.995 1067.28 L403.424 1067.28 L401.853 1067.28 L400.283 1067.28 L398.712 1067.28 L397.141 1067.28 L395.571 1067.28 L394 1067.28 L392.429 1067.28 L390.859 1067.28 L389.288 1067.28 L387.718 1067.28 L386.147 1067.28 L384.576 1067.28 L383.006 1067.28 L381.435 1067.28 L379.864 1067.28 L378.294 1067.28 L376.723 1067.28 L375.152 1067.28 L373.582 1067.28 L372.011 1067.28 L370.44 1067.28 L368.87 1067.28 L367.299 1067.28 L365.728 1067.28 L364.158 1067.28 L362.587 1067.28 L361.016 1067.28 L359.446 1067.28 L357.875 1067.28 L356.304 1067.28 L354.734 1067.28 L353.163 1067.28 L351.592 1067.28 L350.022 1067.28 L348.451 1067.28 L346.881 1067.28 L345.31 1067.28 L343.739 1067.28 L342.169 1067.28 L340.598 1067.28 L339.027 1067.28 L337.457 1067.28 L335.886 1067.28 L334.315 1067.28 L332.745 1067.28 L331.174 1067.28 L329.603 1067.28 L328.033 1067.28 L326.462 1067.28 L324.891 1067.28 L323.321 1067.28 L321.75 1067.28 L320.179 1067.28 L318.609 1067.28 L317.038 1067.28 L315.467 1067.28 L313.897 1067.28 L312.326 1067.28 L310.756 1067.28 L309.185 1067.28 L307.614 1067.28 L306.044 1067.28 L304.473 1067.28 L302.902 1067.28 L301.332 1067.28 L299.761 1067.28 L298.19 1067.28 L296.62 1067.28 L295.049 1067.28 L293.478 1067.28 L291.908 1067.28 L290.337 1067.28 L288.766 1067.28 L287.196 1067.28 L285.625 1067.28 L284.054 1067.28 L282.484 1067.28 L280.913 1067.28 L279.342 1067.28 L277.772 1067.28 L276.201 1067.28 L274.63 1067.28 L273.06 1067.28 L271.489 1067.28 L269.919 1067.28 L268.348 1067.28 L266.777 1067.28 L265.207 1067.28 L263.636 1067.28 L262.065 1067.28 L260.495 1067.28 L258.924 1067.28 L257.353 1067.28  Z" fill="#1f77b4" fill-rule="evenodd" fill-opacity="0.1"/>
<polyline clip-path="url(#clip472)" style="stroke:#1f77b4; stroke-linecap:round; stroke-linejoin:round; stroke-width:12.0013; stroke-opacity:1; fill:none" points="257.353,1056.1 258.924,1055.9 260.495,1055.69 262.065,1055.49 263.636,1055.27 265.207,1055.06 266.777,1054.84 268.348,1054.61 269.919,1054.39 271.489,1054.16 273.06,1053.92 274.63,1053.68 276.201,1053.44 277.772,1053.2 279.342,1052.95 280.913,1052.7 282.484,1052.44 284.054,1052.18 285.625,1051.91 287.196,1051.65 288.766,1051.37 290.337,1051.1 291.908,1050.81 293.478,1050.53 295.049,1050.24 296.62,1049.94 298.19,1049.64 299.761,1049.34 301.332,1049.03 302.902,1048.72 304.473,1048.4 306.044,1048.08 307.614,1047.75 309.185,1047.42 310.756,1047.09 312.326,1046.75 313.897,1046.4 315.467,1046.05 317.038,1045.69 318.609,1045.33 320.179,1044.96 321.75,1044.59 323.321,1044.21 324.891,1043.83 326.462,1043.44 328.033,1043.04 329.603,1042.64 331.174,1042.24 332.745,1041.83 334.315,1041.41 335.886,1040.99 337.457,1040.56 339.027,1040.12 340.598,1039.68 342.169,1039.23 343.739,1038.78 345.31,1038.32 346.881,1037.85 348.451,1037.38 350.022,1036.9 351.592,1036.41 353.163,1035.92 354.734,1035.42 356.304,1034.92 357.875,1034.4 359.446,1033.88 361.016,1033.36 362.587,1032.82 364.158,1032.28 365.728,1031.73 367.299,1031.18 368.87,1030.61 370.44,1030.04 372.011,1029.47 373.582,1028.88 375.152,1028.29 376.723,1027.69 378.294,1027.08 379.864,1026.46 381.435,1025.84 383.006,1025.2 384.576,1024.56 386.147,1023.91 387.718,1023.26 389.288,1022.59 390.859,1021.92 392.429,1021.24 394,1020.54 395.571,1019.84 397.141,1019.14 398.712,1018.42 400.283,1017.69 401.853,1016.96 403.424,1016.21 404.995,1015.46 406.565,1014.7 408.136,1013.93 409.707,1013.14 411.277,1012.35 412.848,1011.55 414.419,1010.74 415.989,1009.92 417.56,1009.1 419.131,1008.26 420.701,1007.41 422.272,1006.55 423.843,1005.68 425.413,1004.8 426.984,1003.91 428.554,1003.01 430.125,1002.1 431.696,1001.18 433.266,1000.25 434.837,999.304 436.408,998.351 437.978,997.387 439.549,996.412 441.12,995.426 442.69,994.429 444.261,993.421 445.832,992.402 447.402,991.371 448.973,990.329 450.544,989.276 452.114,988.211 453.685,987.134 455.256,986.045 456.826,984.945 458.397,983.833 459.968,982.709 461.538,981.572 463.109,980.424 464.68,979.263 466.25,978.091 467.821,976.905 469.391,975.708 470.962,974.497 472.533,973.275 474.103,972.039 475.674,970.791 477.245,969.53 478.815,968.256 480.386,966.969 481.957,965.669 483.527,964.355 485.098,963.029 486.669,961.689 488.239,960.336 489.81,958.97 491.381,957.59 492.951,956.196 494.522,954.789 496.093,953.368 497.663,951.933 499.234,950.484 500.805,949.022 502.375,947.545 503.946,946.055 505.516,944.55 507.087,943.031 508.658,941.498 510.228,939.951 511.799,938.389 513.37,936.812 514.94,935.221 516.511,933.616 518.082,931.996 519.652,930.361 521.223,928.712 522.794,927.047 524.364,925.368 525.935,923.674 527.506,921.965 529.076,920.241 530.647,918.501 532.218,916.747 533.788,914.977 535.359,913.193 536.93,911.392 538.5,909.577 540.071,907.746 541.642,905.9 543.212,904.038 544.783,902.161 546.353,900.268 547.924,898.359 549.495,896.435 551.065,894.495 552.636,892.54 554.207,890.569 555.777,888.581 557.348,886.579 558.919,884.56 560.489,882.525 562.06,880.474 563.631,878.408 565.201,876.325 566.772,874.227 568.343,872.112 569.913,869.982 571.484,867.835 573.055,865.673 574.625,863.494 576.196,861.299 577.767,859.088 579.337,856.861 580.908,854.617 582.478,852.358 584.049,850.082 585.62,847.79 587.19,845.482 588.761,843.158 590.332,840.817 591.902,838.461 593.473,836.088 595.044,833.699 596.614,831.294 598.185,828.872 599.756,826.435 601.326,823.981 602.897,821.511 604.468,819.026 606.038,816.524 607.609,814.006 609.18,811.471 610.75,808.921 612.321,806.355 613.892,803.773 615.462,801.175 617.033,798.561 618.604,795.931 620.174,793.285 621.745,790.624 623.315,787.946 624.886,785.253 626.457,782.544 628.027,779.82 629.598,777.08 631.169,774.324 632.739,771.553 634.31,768.766 635.881,765.965 637.451,763.147 639.022,760.315 640.593,757.467 642.163,754.604 643.734,751.726 645.305,748.833 646.875,745.925 648.446,743.003 650.017,740.065 651.587,737.113 653.158,734.146 654.729,731.165 656.299,728.169 657.87,725.159 659.44,722.134 661.011,719.095 662.582,716.043 664.152,712.976 665.723,709.895 667.294,706.801 668.864,703.693 670.435,700.571 672.006,697.436 673.576,694.288 675.147,691.126 676.718,687.951 678.288,684.764 679.859,681.563 681.43,678.35 683,675.124 684.571,671.885 686.142,668.634 687.712,665.371 689.283,662.096 690.854,658.809 692.424,655.51 693.995,652.199 695.566,648.877 697.136,645.543 698.707,642.198 700.277,638.843 701.848,635.476 703.419,632.098 704.989,628.71 706.56,625.312 708.131,621.903 709.701,618.484 711.272,615.055 712.843,611.616 714.413,608.168 715.984,604.71 717.555,601.243 719.125,597.768 720.696,594.283 722.267,590.789 723.837,587.287 725.408,583.777 726.979,580.259 728.549,576.733 730.12,573.199 731.691,569.657 733.261,566.108 734.832,562.553 736.402,558.99 737.973,555.42 739.544,551.844 741.114,548.262 742.685,544.674 744.256,541.08 745.826,537.48 747.397,533.875 748.968,530.265 750.538,526.65 752.109,523.03 753.68,519.406 755.25,515.777 756.821,512.145 758.392,508.508 759.962,504.868 761.533,501.225 763.104,497.579 764.674,493.93 766.245,490.278 767.816,486.625 769.386,482.969 770.957,479.311 772.528,475.652 774.098,471.991 775.669,468.329 777.239,464.667 778.81,461.004 780.381,457.341 781.951,453.677 783.522,450.014 785.093,446.352 786.663,442.69 788.234,439.03 789.805,435.371 791.375,431.713 792.946,428.057 794.517,424.404 796.087,420.753 797.658,417.104 799.229,413.459 800.799,409.817 802.37,406.178 803.941,402.543 805.511,398.913 807.082,395.287 808.653,391.665 810.223,388.049 811.794,384.437 813.364,380.832 814.935,377.232 816.506,373.638 818.076,370.051 819.647,366.471 821.218,362.897 822.788,359.331 824.359,355.772 825.93,352.222 827.5,348.679 829.071,345.145 830.642,341.62 832.212,338.104 833.783,334.597 835.354,331.1 836.924,327.613 838.495,324.137 840.066,320.671 841.636,317.215 843.207,313.771 844.778,310.339 846.348,306.918 847.919,303.509 849.49,300.113 851.06,296.73 852.631,293.359 854.201,290.002 855.772,286.658 857.343,283.328 858.913,280.013 860.484,276.712 862.055,273.425 863.625,270.154 865.196,266.898 866.767,263.658 868.337,260.434 869.908,257.226 871.479,254.035 873.049,250.86 874.62,247.703 876.191,244.564 877.761,241.442 879.332,238.338 880.903,235.252 882.473,232.185 884.044,229.137 885.615,226.108 887.185,223.099 888.756,220.109 890.326,217.14 891.897,214.191 893.468,211.263 895.038,208.355 896.609,205.469 898.18,202.604 899.75,199.761 901.321,196.94 902.892,194.141 904.462,191.365 906.033,188.612 907.604,185.882 909.174,183.176 910.745,180.493 912.316,177.834 913.886,175.199 915.457,172.589 917.028,170.003 918.598,167.442 920.169,164.907 921.74,162.397 923.31,159.913 924.881,157.455 926.452,155.023 928.022,152.618 929.593,150.239 931.163,147.888 932.734,145.563 934.305,143.266 935.875,140.997 937.446,138.755 939.017,136.542 940.587,134.357 942.158,132.201 943.729,130.074 945.299,127.975 946.87,125.906 948.441,123.867 950.011,121.857 951.582,119.877 953.153,117.927 954.723,116.007 956.294,114.118 957.865,112.259 959.435,110.432 961.006,108.635 962.577,106.87 964.147,105.136 965.718,103.434 967.288,101.764 968.859,100.126 970.43,98.5195 972,96.9457 973.571,95.4044 975.142,93.8958 976.712,92.42 978.283,90.9771 979.854,89.5674 981.424,88.191 982.995,86.848 984.566,85.5386 986.136,84.2629 987.707,83.021 989.278,81.8131 990.848,80.6394 992.419,79.4998 993.99,78.3946 995.56,77.3239 997.131,76.2878 998.702,75.2864 1000.27,74.3198 1001.84,73.3881 1003.41,72.4914 1004.98,71.6298 1006.55,70.8034 1008.13,70.0123 1009.7,69.2566 1011.27,68.5363 1012.84,67.8516 1014.41,67.2024 1015.98,66.589 1017.55,66.0113 1019.12,65.4693 1020.69,64.9633 1022.26,64.4932 1023.83,64.059 1025.4,63.6608 1026.97,63.2988 1028.54,62.9728 1030.11,62.6829 1031.69,62.4292 1033.26,62.2117 1034.83,62.0304 1036.4,61.8854 1037.97,61.7766 1039.54,61.704 1041.11,61.6677 1042.68,61.6677 1044.25,61.704 1045.82,61.7766 1047.39,61.8854 1048.96,62.0304 1050.53,62.2117 1052.1,62.4292 1053.67,62.6829 1055.25,62.9728 1056.82,63.2988 1058.39,63.6608 1059.96,64.059 1061.53,64.4932 1063.1,64.9633 1064.67,65.4693 1066.24,66.0113 1067.81,66.589 1069.38,67.2024 1070.95,67.8516 1072.52,68.5363 1074.09,69.2566 1075.66,70.0123 1077.23,70.8034 1078.8,71.6298 1080.38,72.4914 1081.95,73.3881 1083.52,74.3198 1085.09,75.2864 1086.66,76.2878 1088.23,77.3239 1089.8,78.3946 1091.37,79.4998 1092.94,80.6394 1094.51,81.8131 1096.08,83.021 1097.65,84.2629 1099.22,85.5386 1100.79,86.848 1102.36,88.191 1103.94,89.5674 1105.51,90.9771 1107.08,92.42 1108.65,93.8958 1110.22,95.4044 1111.79,96.9457 1113.36,98.5195 1114.93,100.126 1116.5,101.764 1118.07,103.434 1119.64,105.136 1121.21,106.87 1122.78,108.635 1124.35,110.432 1125.92,112.259 1127.5,114.118 1129.07,116.007 1130.64,117.927 1132.21,119.877 1133.78,121.857 1135.35,123.867 1136.92,125.906 1138.49,127.975 1140.06,130.074 1141.63,132.201 1143.2,134.357 1144.77,136.542 1146.34,138.755 1147.91,140.997 1149.48,143.266 1151.05,145.563 1152.63,147.888 1154.2,150.239 1155.77,152.618 1157.34,155.023 1158.91,157.455 1160.48,159.913 1162.05,162.397 1163.62,164.907 1165.19,167.442 1166.76,170.003 1168.33,172.589 1169.9,175.199 1171.47,177.834 1173.04,180.493 1174.61,183.176 1176.19,185.882 1177.76,188.612 1179.33,191.365 1180.9,194.141 1182.47,196.94 1184.04,199.761 1185.61,202.604 1187.18,205.469 1188.75,208.355 1190.32,211.263 1191.89,214.191 1193.46,217.14 1195.03,220.109 1196.6,223.099 1198.17,226.108 1199.75,229.137 1201.32,232.185 1202.89,235.252 1204.46,238.338 1206.03,241.442 1207.6,244.564 1209.17,247.703 1210.74,250.86 1212.31,254.035 1213.88,257.226 1215.45,260.434 1217.02,263.658 1218.59,266.898 1220.16,270.154 1221.73,273.425 1223.3,276.712 1224.88,280.013 1226.45,283.328 1228.02,286.658 1229.59,290.002 1231.16,293.359 1232.73,296.73 1234.3,300.113 1235.87,303.509 1237.44,306.918 1239.01,310.339 1240.58,313.771 1242.15,317.215 1243.72,320.671 1245.29,324.137 1246.86,327.613 1248.44,331.1 1250.01,334.597 1251.58,338.104 1253.15,341.62 1254.72,345.145 1256.29,348.679 1257.86,352.222 1259.43,355.772 1261,359.331 1262.57,362.897 1264.14,366.471 1265.71,370.051 1267.28,373.638 1268.85,377.232 1270.42,380.832 1272,384.437 1273.57,388.049 1275.14,391.665 1276.71,395.287 1278.28,398.913 1279.85,402.543 1281.42,406.178 1282.99,409.817 1284.56,413.459 1286.13,417.104 1287.7,420.753 1289.27,424.404 1290.84,428.057 1292.41,431.713 1293.98,435.371 1295.55,439.03 1297.13,442.69 1298.7,446.352 1300.27,450.014 1301.84,453.677 1303.41,457.341 1304.98,461.004 1306.55,464.667 1308.12,468.329 1309.69,471.991 1311.26,475.652 1312.83,479.311 1314.4,482.969 1315.97,486.625 1317.54,490.278 1319.11,493.93 1320.69,497.579 1322.26,501.225 1323.83,504.868 1325.4,508.508 1326.97,512.145 1328.54,515.777 1330.11,519.406 1331.68,523.03 1333.25,526.65 1334.82,530.265 1336.39,533.875 1337.96,537.48 1339.53,541.08 1341.1,544.674 1342.67,548.262 1344.25,551.844 1345.82,555.42 1347.39,558.99 1348.96,562.553 1350.53,566.108 1352.1,569.657 1353.67,573.199 1355.24,576.733 1356.81,580.259 1358.38,583.777 1359.95,587.287 1361.52,590.789 1363.09,594.283 1364.66,597.768 1366.23,601.243 1367.81,604.71 1369.38,608.168 1370.95,611.616 1372.52,615.055 1374.09,618.484 1375.66,621.903 1377.23,625.312 1378.8,628.71 1380.37,632.098 1381.94,635.476 1383.51,638.843 1385.08,642.198 1386.65,645.543 1388.22,648.877 1389.79,652.199 1391.36,655.51 1392.94,658.809 1394.51,662.096 1396.08,665.371 1397.65,668.634 1399.22,671.885 1400.79,675.124 1402.36,678.35 1403.93,681.563 1405.5,684.764 1407.07,687.951 1408.64,691.126 1410.21,694.288 1411.78,697.436 1413.35,700.571 1414.92,703.693 1416.5,706.801 1418.07,709.895 1419.64,712.976 1421.21,716.043 1422.78,719.095 1424.35,722.134 1425.92,725.159 1427.49,728.169 1429.06,731.165 1430.63,734.146 1432.2,737.113 1433.77,740.065 1435.34,743.003 1436.91,745.925 1438.48,748.833 1440.06,751.726 1441.63,754.604 1443.2,757.467 1444.77,760.315 1446.34,763.147 1447.91,765.965 1449.48,768.766 1451.05,771.553 1452.62,774.324 1454.19,777.08 1455.76,779.82 1457.33,782.544 1458.9,785.253 1460.47,787.946 1462.04,790.624 1463.61,793.285 1465.19,795.931 1466.76,798.561 1468.33,801.175 1469.9,803.773 1471.47,806.355 1473.04,808.921 1474.61,811.471 1476.18,814.006 1477.75,816.524 1479.32,819.026 1480.89,821.511 1482.46,823.981 1484.03,826.435 1485.6,828.872 1487.17,831.294 1488.75,833.699 1490.32,836.088 1491.89,838.461 1493.46,840.817 1495.03,843.158 1496.6,845.482 1498.17,847.79 1499.74,850.082 1501.31,852.358 1502.88,854.617 1504.45,856.861 1506.02,859.088 1507.59,861.299 1509.16,863.494 1510.73,865.673 1512.31,867.835 1513.88,869.982 1515.45,872.112 1517.02,874.227 1518.59,876.325 1520.16,878.408 1521.73,880.474 1523.3,882.525 1524.87,884.56 1526.44,886.579 1528.01,888.581 1529.58,890.569 1531.15,892.54 1532.72,894.495 1534.29,896.435 1535.86,898.359 1537.44,900.268 1539.01,902.161 1540.58,904.038 1542.15,905.9 1543.72,907.746 1545.29,909.577 1546.86,911.392 1548.43,913.193 1550,914.977 1551.57,916.747 1553.14,918.501 1554.71,920.241 1556.28,921.965 1557.85,923.674 1559.42,925.368 1561,927.047 1562.57,928.712 1564.14,930.361 1565.71,931.996 1567.28,933.616 1568.85,935.221 1570.42,936.812 1571.99,938.389 1573.56,939.951 1575.13,941.498 1576.7,943.031 1578.27,944.55 1579.84,946.055 1581.41,947.545 1582.98,949.022 1584.56,950.484 1586.13,951.933 1587.7,953.368 1589.27,954.789 1590.84,956.196 1592.41,957.59 1593.98,958.97 1595.55,960.336 1597.12,961.689 1598.69,963.029 1600.26,964.355 1601.83,965.669 1603.4,966.969 1604.97,968.256 1606.54,969.53 1608.11,970.791 1609.69,972.039 1611.26,973.275 1612.83,974.497 1614.4,975.708 1615.97,976.905 1617.54,978.091 1619.11,979.263 1620.68,980.424 1622.25,981.572 1623.82,982.709 1625.39,983.833 1626.96,984.945 1628.53,986.045 1630.1,987.134 1631.67,988.211 1633.25,989.276 1634.82,990.329 1636.39,991.371 1637.96,992.402 1639.53,993.421 1641.1,994.429 1642.67,995.426 1644.24,996.412 1645.81,997.387 1647.38,998.351 1648.95,999.304 1650.52,1000.25 1652.09,1001.18 1653.66,1002.1 1655.23,1003.01 1656.81,1003.91 1658.38,1004.8 1659.95,1005.68 1661.52,1006.55 1663.09,1007.41 1664.66,1008.26 1666.23,1009.1 1667.8,1009.92 1669.37,1010.74 1670.94,1011.55 1672.51,1012.35 1674.08,1013.14 1675.65,1013.93 1677.22,1014.7 1678.79,1015.46 1680.36,1016.21 1681.94,1016.96 1683.51,1017.69 1685.08,1018.42 1686.65,1019.14 1688.22,1019.84 1689.79,1020.54 1691.36,1021.24 1692.93,1021.92 1694.5,1022.59 1696.07,1023.26 1697.64,1023.91 1699.21,1024.56 1700.78,1025.2 1702.35,1025.84 1703.92,1026.46 1705.5,1027.08 1707.07,1027.69 1708.64,1028.29 1710.21,1028.88 1711.78,1029.47 1713.35,1030.04 1714.92,1030.61 1716.49,1031.18 1718.06,1031.73 1719.63,1032.28 1721.2,1032.82 1722.77,1033.36 1724.34,1033.88 1725.91,1034.4 1727.48,1034.92 1729.06,1035.42 1730.63,1035.92 1732.2,1036.41 1733.77,1036.9 1735.34,1037.38 1736.91,1037.85 1738.48,1038.32 1740.05,1038.78 1741.62,1039.23 1743.19,1039.68 1744.76,1040.12 1746.33,1040.56 1747.9,1040.99 1749.47,1041.41 1751.04,1041.83 1752.62,1042.24 1754.19,1042.64 1755.76,1043.04 1757.33,1043.44 1758.9,1043.83 1760.47,1044.21 1762.04,1044.59 1763.61,1044.96 1765.18,1045.33 1766.75,1045.69 1768.32,1046.05 1769.89,1046.4 1771.46,1046.75 1773.03,1047.09 1774.6,1047.42 1776.17,1047.75 1777.75,1048.08 1779.32,1048.4 1780.89,1048.72 1782.46,1049.03 1784.03,1049.34 1785.6,1049.64 1787.17,1049.94 1788.74,1050.24 1790.31,1050.53 1791.88,1050.81 1793.45,1051.1 1795.02,1051.37 1796.59,1051.65 1798.16,1051.91 1799.73,1052.18 1801.31,1052.44 1802.88,1052.7 1804.45,1052.95 1806.02,1053.2 1807.59,1053.44 1809.16,1053.68 1810.73,1053.92 1812.3,1054.16 1813.87,1054.39 1815.44,1054.61 1817.01,1054.84 1818.58,1055.06 1820.15,1055.27 1821.72,1055.49 1823.29,1055.69 1824.87,1055.9 1826.44,1056.1 "/>
</svg>
