<?xml version="1.0" encoding="utf-8"?>
<svg xmlns="http://www.w3.org/2000/svg" xmlns:xlink="http://www.w3.org/1999/xlink" width="476.25" height="317" viewBox="0 0 1905 1268">
<defs>
  <clipPath id="clip550">
    <rect x="0" y="0" width="1905" height="1268"/>
  </clipPath>
</defs>
<defs>
  <clipPath id="clip551">
    <rect x="381" y="0" width="1335" height="1268"/>
  </clipPath>
</defs>
<defs>
  <clipPath id="clip552">
    <rect x="209" y="31" width="1665" height="1067"/>
  </clipPath>
</defs>
<path clip-path="url(#clip552)" d="M256.663 987.269 L258.235 986.182 L259.806 985.084 L261.377 983.973 L262.949 982.85 L264.52 981.715 L266.091 980.569 L267.663 979.41 L269.234 978.238 L270.805 977.055 L272.377 975.858 L273.948 974.65 L275.519 973.428 L277.09 972.195 L278.662 970.948 L280.233 969.688 L281.804 968.416 L283.376 967.131 L284.947 965.832 L286.518 964.521 L288.09 963.196 L289.661 961.858 L291.232 960.506 L292.804 959.142 L294.375 957.763 L295.946 956.371 L297.518 954.966 L299.089 953.547 L300.66 952.114 L302.232 950.667 L303.803 949.206 L305.374 947.731 L306.946 946.242 L308.517 944.739 L310.088 943.222 L311.66 941.691 L313.231 940.145 L314.802 938.585 L316.374 937.011 L317.945 935.422 L319.516 933.818 L321.088 932.2 L322.659 930.567 L324.23 928.919 L325.802 927.257 L327.373 925.579 L328.944 923.887 L330.515 922.18 L332.087 920.458 L333.658 918.72 L335.229 916.968 L336.801 915.2 L338.372 913.417 L339.943 911.619 L341.515 909.805 L343.086 907.976 L344.657 906.132 L346.229 904.272 L347.8 902.397 L349.371 900.506 L350.943 898.599 L352.514 896.677 L354.085 894.739 L355.657 892.786 L357.228 890.816 L358.799 888.831 L360.371 886.83 L361.942 884.814 L363.513 882.781 L365.085 880.732 L366.656 878.668 L368.227 876.587 L369.799 874.491 L371.37 872.378 L372.941 870.25 L374.513 868.105 L376.084 865.945 L377.655 863.768 L379.227 861.575 L380.798 859.366 L382.369 857.141 L383.94 854.899 L385.512 852.642 L387.083 850.368 L388.654 848.078 L390.226 845.772 L391.797 843.45 L393.368 841.112 L394.94 838.757 L396.511 836.386 L398.082 833.999 L399.654 831.596 L401.225 829.177 L402.796 826.741 L404.368 824.29 L405.939 821.822 L407.51 819.338 L409.082 816.838 L410.653 814.322 L412.224 811.79 L413.796 809.242 L415.367 806.678 L416.938 804.098 L418.51 801.502 L420.081 798.889 L421.652 796.262 L423.224 793.618 L424.795 790.958 L426.366 788.283 L427.938 785.592 L429.509 782.885 L431.08 780.162 L432.652 777.424 L434.223 774.671 L435.794 771.901 L437.366 769.117 L438.937 766.317 L440.508 763.501 L442.079 760.671 L443.651 757.825 L445.222 754.964 L446.793 752.088 L448.365 749.197 L449.936 746.291 L451.507 743.37 L453.079 740.434 L454.65 737.484 L456.221 734.519 L457.793 731.539 L459.364 728.545 L460.935 725.537 L462.507 722.514 L464.078 719.477 L465.649 716.426 L467.221 713.361 L468.792 710.283 L470.363 707.19 L471.935 704.084 L473.506 700.964 L475.077 697.83 L476.649 694.684 L478.22 691.524 L479.791 688.35 L481.363 685.164 L482.934 681.965 L484.505 678.753 L486.077 675.529 L487.648 672.292 L489.219 669.043 L490.791 665.781 L492.362 662.507 L493.933 659.222 L495.504 655.924 L497.076 652.615 L498.647 649.294 L500.218 645.962 L501.79 642.619 L503.361 639.264 L504.932 635.899 L506.504 632.523 L508.075 629.136 L509.646 625.739 L511.218 622.331 L512.789 618.913 L514.36 615.486 L515.932 612.048 L517.503 608.601 L519.074 605.145 L520.646 601.679 L522.217 598.204 L523.788 594.721 L525.36 591.228 L526.931 587.727 L528.502 584.218 L530.074 580.701 L531.645 577.176 L533.216 573.643 L534.788 570.102 L536.359 566.554 L537.93 562.999 L539.502 559.437 L541.073 555.869 L542.644 552.294 L544.216 548.712 L545.787 545.125 L547.358 541.532 L548.929 537.933 L550.501 534.328 L552.072 530.719 L553.643 527.104 L555.215 523.485 L556.786 519.861 L558.357 516.233 L559.929 512.601 L561.5 508.965 L563.071 505.326 L564.643 501.683 L566.214 498.037 L567.785 494.389 L569.357 490.737 L570.928 487.084 L572.499 483.428 L574.071 479.77 L575.642 476.111 L577.213 472.451 L578.785 468.789 L580.356 465.127 L581.927 461.464 L583.499 457.801 L585.07 454.138 L586.641 450.475 L588.213 446.812 L589.784 443.151 L591.355 439.49 L592.927 435.83 L594.498 432.173 L596.069 428.517 L597.641 424.863 L599.212 421.211 L600.783 417.563 L602.354 413.917 L603.926 410.274 L605.497 406.635 L607.068 403 L608.64 399.369 L610.211 395.742 L611.782 392.12 L613.354 388.503 L614.925 384.891 L616.496 381.285 L618.068 377.684 L619.639 374.09 L621.21 370.502 L622.782 366.92 L624.353 363.346 L625.924 359.779 L627.496 356.219 L629.067 352.668 L630.638 349.124 L632.21 345.589 L633.781 342.063 L635.352 338.546 L636.924 335.038 L638.495 331.54 L640.066 328.052 L641.638 324.574 L643.209 321.106 L644.78 317.65 L646.352 314.204 L647.923 310.77 L649.494 307.348 L651.066 303.938 L652.637 300.54 L654.208 297.155 L655.779 293.783 L657.351 290.424 L658.922 287.078 L660.493 283.747 L662.065 280.429 L663.636 277.126 L665.207 273.838 L666.779 270.565 L668.35 267.307 L669.921 264.065 L671.493 260.839 L673.064 257.629 L674.635 254.436 L676.207 251.26 L677.778 248.1 L679.349 244.958 L680.921 241.834 L682.492 238.728 L684.063 235.64 L685.635 232.571 L687.206 229.52 L688.777 226.489 L690.349 223.477 L691.92 220.485 L693.491 217.513 L695.063 214.562 L696.634 211.631 L698.205 208.721 L699.777 205.832 L701.348 202.964 L702.919 200.119 L704.491 197.295 L706.062 194.493 L707.633 191.715 L709.204 188.959 L710.776 186.226 L712.347 183.516 L713.918 180.83 L715.49 178.168 L717.061 175.53 L718.632 172.917 L720.204 170.328 L721.775 167.765 L723.346 165.226 L724.918 162.713 L726.489 160.226 L728.06 157.764 L729.632 155.329 L731.203 152.921 L732.774 150.539 L734.346 148.184 L735.917 145.856 L737.488 143.555 L739.06 141.283 L740.631 139.038 L742.202 136.821 L743.774 134.633 L745.345 132.473 L746.916 130.342 L748.488 128.24 L750.059 126.167 L751.63 124.124 L753.202 122.11 L754.773 120.126 L756.344 118.172 L757.916 116.249 L759.487 114.356 L761.058 112.494 L762.629 110.662 L764.201 108.862 L765.772 107.093 L767.343 105.355 L768.915 103.649 L770.486 101.975 L772.057 100.332 L773.629 98.7222 L775.2 97.1443 L776.771 95.5989 L778.343 94.0862 L779.914 92.6063 L781.485 91.1593 L783.057 89.7454 L784.628 88.3649 L786.199 87.0177 L787.771 85.704 L789.342 84.4241 L790.913 83.178 L792.485 81.9659 L794.056 80.7878 L795.627 79.644 L797.199 78.5345 L798.77 77.4594 L800.341 76.419 L801.913 75.4132 L803.484 74.4422 L805.055 73.5061 L806.627 72.605 L808.198 71.739 L809.769 70.9082 L811.341 70.1126 L812.912 69.3524 L814.483 68.6277 L816.054 67.9385 L817.626 67.2849 L819.197 66.6669 L820.768 66.0847 L822.34 65.5382 L823.911 65.0277 L825.482 64.553 L827.054 64.1143 L828.625 63.7116 L830.196 63.3449 L831.768 63.0143 L833.339 62.7199 L834.91 62.4616 L836.482 62.2395 L838.053 62.0536 L839.624 61.9039 L841.196 61.7905 L842.767 61.7133 L844.338 61.6724 L845.91 61.6677 L847.481 61.6994 L849.052 61.7672 L850.624 61.8714 L852.195 62.0118 L853.766 62.1884 L855.338 62.4012 L856.909 62.6502 L858.48 62.9354 L860.052 63.2567 L861.623 63.614 L863.194 64.0075 L864.766 64.4369 L866.337 64.9023 L867.908 65.4036 L869.48 65.9408 L871.051 66.5138 L872.622 67.1225 L874.193 67.7668 L875.765 68.4468 L877.336 69.1623 L878.907 69.9132 L880.479 70.6995 L882.05 71.5211 L883.621 72.3779 L885.193 73.2697 L886.764 74.1966 L888.335 75.1583 L889.907 76.1549 L891.478 77.1861 L893.049 78.2519 L894.621 79.3521 L896.192 80.4867 L897.763 81.6555 L899.335 82.8584 L900.906 84.0953 L902.477 85.3659 L904.049 86.6703 L905.62 88.0082 L907.191 89.3795 L908.763 90.784 L910.334 92.2217 L911.905 93.6923 L913.477 95.1957 L915.048 96.7317 L916.619 98.3001 L918.191 99.9009 L919.762 101.534 L921.333 103.199 L922.905 104.895 L924.476 106.623 L926.047 108.383 L927.618 110.174 L929.19 111.995 L930.761 113.848 L932.332 115.731 L933.904 117.645 L935.475 119.589 L937.046 121.562 L938.618 123.566 L940.189 125.599 L941.76 127.662 L943.332 129.754 L944.903 131.874 L946.474 134.024 L948.046 136.201 L949.617 138.407 L951.188 140.641 L952.76 142.903 L954.331 145.193 L955.902 147.509 L957.474 149.853 L959.045 152.223 L960.616 154.62 L962.188 157.044 L963.759 159.493 L965.33 161.968 L966.902 164.469 L968.473 166.994 L970.044 169.545 L971.616 172.121 L973.187 174.721 L974.758 177.345 L976.33 179.993 L977.901 182.664 L979.472 185.359 L981.043 188.077 L982.615 190.818 L984.186 193.581 L985.757 196.367 L987.329 199.174 L988.9 202.003 L990.471 204.853 L992.043 207.724 L993.614 210.616 L995.185 213.528 L996.757 216.461 L998.328 219.413 L999.899 222.384 L1001.47 225.375 L1003.04 228.385 L1004.61 231.413 L1006.18 234.459 L1007.76 237.523 L1009.33 240.605 L1010.9 243.704 L1012.47 246.82 L1014.04 249.953 L1015.61 253.101 L1017.18 256.266 L1018.76 259.446 L1020.33 262.642 L1021.9 265.852 L1023.47 269.078 L1025.04 272.317 L1026.61 275.57 L1028.18 278.837 L1029.75 282.117 L1031.33 285.41 L1032.9 288.715 L1034.47 292.033 L1036.04 295.362 L1037.61 298.703 L1039.18 302.055 L1040.75 305.417 L1042.33 308.79 L1043.9 312.173 L1045.47 315.566 L1047.04 318.968 L1048.61 322.379 L1050.18 325.798 L1051.75 329.226 L1053.32 332.661 L1054.9 336.104 L1056.47 339.554 L1058.04 343.01 L1059.61 346.473 L1061.18 349.942 L1062.75 353.416 L1064.32 356.895 L1065.89 360.38 L1067.47 363.868 L1069.04 367.36 L1070.61 370.857 L1072.18 374.356 L1073.75 377.858 L1075.32 381.362 L1076.89 384.869 L1078.47 388.377 L1080.04 391.886 L1081.61 395.396 L1083.18 398.906 L1084.75 402.417 L1086.32 405.927 L1087.89 409.436 L1089.46 412.943 L1091.04 416.449 L1092.61 419.953 L1094.18 423.455 L1095.75 426.953 L1097.32 430.449 L1098.89 433.94 L1100.46 437.427 L1102.04 440.909 L1103.61 444.387 L1105.18 447.859 L1106.75 451.325 L1108.32 454.784 L1109.89 458.237 L1111.46 461.682 L1113.03 465.12 L1114.61 468.549 L1116.18 471.97 L1117.75 475.382 L1119.32 478.784 L1120.89 482.177 L1122.46 485.559 L1124.03 488.93 L1125.61 492.29 L1127.18 495.638 L1128.75 498.973 L1130.32 502.297 L1131.89 505.606 L1133.46 508.903 L1135.03 512.185 L1136.6 515.452 L1138.18 518.705 L1139.75 521.942 L1141.32 525.163 L1142.89 528.367 L1144.46 531.555 L1146.03 534.725 L1147.6 537.877 L1149.18 541.011 L1150.75 544.125 L1152.32 547.221 L1153.89 550.297 L1155.46 553.352 L1157.03 556.387 L1158.6 559.4 L1160.17 562.391 L1161.75 565.361 L1163.32 568.307 L1164.89 571.23 L1166.46 574.13 L1168.03 577.005 L1169.6 579.855 L1171.17 582.68 L1172.74 585.48 L1174.32 588.253 L1175.89 591 L1177.46 593.719 L1179.03 596.411 L1180.6 599.075 L1182.17 601.71 L1183.74 604.316 L1185.32 606.892 L1186.89 609.438 L1188.46 611.954 L1190.03 614.438 L1191.6 616.891 L1193.17 619.312 L1194.74 621.701 L1196.31 624.056 L1197.89 626.378 L1199.46 628.666 L1201.03 630.92 L1202.6 633.139 L1204.17 635.323 L1205.74 637.47 L1207.31 639.582 L1208.89 641.657 L1210.46 643.695 L1212.03 645.696 L1213.6 647.658 L1215.17 649.582 L1216.74 651.467 L1218.31 653.313 L1219.88 655.12 L1221.46 656.886 L1223.03 658.612 L1224.6 660.297 L1226.17 661.941 L1227.74 663.543 L1229.31 665.103 L1230.88 666.621 L1232.46 668.096 L1234.03 669.528 L1235.6 670.917 L1237.17 672.262 L1238.74 673.563 L1240.31 674.819 L1241.88 676.031 L1243.45 677.198 L1245.03 678.32 L1246.6 679.396 L1248.17 680.426 L1249.74 681.41 L1251.31 682.348 L1252.88 683.24 L1254.45 684.084 L1256.03 684.882 L1257.6 685.633 L1259.17 686.336 L1260.74 686.992 L1262.31 687.6 L1263.88 688.161 L1265.45 688.674 L1267.02 689.138 L1268.6 689.555 L1270.17 689.923 L1271.74 690.243 L1273.31 690.515 L1274.88 690.738 L1276.45 690.913 L1278.02 691.04 L1279.59 691.119 L1281.17 691.149 L1282.74 691.131 L1284.31 691.065 L1285.88 690.95 L1287.45 690.788 L1289.02 690.578 L1290.59 690.32 L1292.17 690.014 L1293.74 689.661 L1295.31 689.261 L1296.88 688.814 L1298.45 688.32 L1300.02 687.78 L1301.59 687.193 L1303.16 686.561 L1304.74 685.882 L1306.31 685.159 L1307.88 684.391 L1309.45 683.578 L1311.02 682.721 L1312.59 681.82 L1314.16 680.876 L1315.74 679.889 L1317.31 678.859 L1318.88 677.788 L1320.45 676.675 L1322.02 675.522 L1323.59 674.328 L1325.16 673.095 L1326.73 671.822 L1328.31 670.512 L1329.88 669.163 L1331.45 667.777 L1333.02 666.355 L1334.59 664.897 L1336.16 663.404 L1337.73 661.876 L1339.31 660.315 L1340.88 658.722 L1342.45 657.096 L1344.02 655.44 L1345.59 653.753 L1347.16 652.037 L1348.73 650.292 L1350.3 648.52 L1351.88 646.721 L1353.45 644.896 L1355.02 643.047 L1356.59 641.174 L1358.16 639.277 L1359.73 637.36 L1361.3 635.421 L1362.88 633.463 L1364.45 631.486 L1366.02 629.491 L1367.59 627.48 L1369.16 625.453 L1370.73 623.412 L1372.3 621.358 L1373.87 619.292 L1375.45 617.215 L1377.02 615.128 L1378.59 613.033 L1380.16 610.93 L1381.73 608.822 L1383.3 606.708 L1384.87 604.59 L1386.44 602.47 L1388.02 600.349 L1389.59 598.228 L1391.16 596.108 L1392.73 593.99 L1394.3 591.876 L1395.87 589.767 L1397.44 587.665 L1399.02 585.569 L1400.59 583.483 L1402.16 581.407 L1403.73 579.342 L1405.3 577.289 L1406.87 575.251 L1408.44 573.228 L1410.01 571.221 L1411.59 569.232 L1413.16 567.261 L1414.73 565.311 L1416.3 563.383 L1417.87 561.477 L1419.44 559.596 L1421.01 557.739 L1422.59 555.909 L1424.16 554.107 L1425.73 552.334 L1427.3 550.591 L1428.87 548.879 L1430.44 547.2 L1432.01 545.554 L1433.58 543.944 L1435.16 542.369 L1436.73 540.831 L1438.3 539.332 L1439.87 537.872 L1441.44 536.453 L1443.01 535.075 L1444.58 533.739 L1446.16 532.448 L1447.73 531.2 L1449.3 529.999 L1450.87 528.844 L1452.44 527.737 L1454.01 526.678 L1455.58 525.668 L1457.15 524.709 L1458.73 523.801 L1460.3 522.945 L1461.87 522.142 L1463.44 521.393 L1465.01 520.697 L1466.58 520.057 L1468.15 519.473 L1469.73 518.946 L1471.3 518.475 L1472.87 518.063 L1474.44 517.708 L1476.01 517.413 L1477.58 517.178 L1479.15 517.002 L1480.72 516.887 L1482.3 516.833 L1483.87 516.841 L1485.44 516.91 L1487.01 517.042 L1488.58 517.236 L1490.15 517.494 L1491.72 517.814 L1493.29 518.198 L1494.87 518.645 L1496.44 519.157 L1498.01 519.732 L1499.58 520.371 L1501.15 521.075 L1502.72 521.843 L1504.29 522.675 L1505.87 523.571 L1507.44 524.532 L1509.01 525.556 L1510.58 526.645 L1512.15 527.798 L1513.72 529.014 L1515.29 530.294 L1516.86 531.638 L1518.44 533.044 L1520.01 534.514 L1521.58 536.045 L1523.15 537.639 L1524.72 539.295 L1526.29 541.012 L1527.86 542.79 L1529.44 544.629 L1531.01 546.527 L1532.58 548.485 L1534.15 550.502 L1535.72 552.578 L1537.29 554.711 L1538.86 556.901 L1540.43 559.148 L1542.01 561.45 L1543.58 563.808 L1545.15 566.22 L1546.72 568.685 L1548.29 571.204 L1549.86 573.775 L1551.43 576.397 L1553.01 579.069 L1554.58 581.791 L1556.15 584.562 L1557.72 587.38 L1559.29 590.245 L1560.86 593.157 L1562.43 596.113 L1564 599.114 L1565.58 602.157 L1567.15 605.243 L1568.72 608.37 L1570.29 611.536 L1571.86 614.742 L1573.43 617.986 L1575 621.267 L1576.58 624.583 L1578.15 627.935 L1579.72 631.319 L1581.29 634.737 L1582.86 638.186 L1584.43 641.665 L1586 645.174 L1587.57 648.71 L1589.15 652.274 L1590.72 655.864 L1592.29 659.478 L1593.86 663.115 L1595.43 666.775 L1597 670.457 L1598.57 674.158 L1600.14 677.878 L1601.72 681.616 L1603.29 685.371 L1604.86 689.141 L1606.43 692.926 L1608 696.724 L1609.57 700.534 L1611.14 704.354 L1612.72 708.185 L1614.29 712.024 L1615.86 715.871 L1617.43 719.725 L1619 723.583 L1620.57 727.447 L1622.14 731.313 L1623.71 735.181 L1625.29 739.051 L1626.86 742.92 L1628.43 746.788 L1630 750.655 L1631.57 754.518 L1633.14 758.377 L1634.71 762.231 L1636.29 766.079 L1637.86 769.92 L1639.43 773.753 L1641 777.577 L1642.57 781.391 L1644.14 785.194 L1645.71 788.985 L1647.28 792.764 L1648.86 796.53 L1650.43 800.281 L1652 804.018 L1653.57 807.738 L1655.14 811.441 L1656.71 815.127 L1658.28 818.795 L1659.86 822.444 L1661.43 826.073 L1663 829.681 L1664.57 833.269 L1666.14 836.835 L1667.71 840.378 L1669.28 843.898 L1670.85 847.394 L1672.43 850.866 L1674 854.313 L1675.57 857.735 L1677.14 861.131 L1678.71 864.5 L1680.28 867.843 L1681.85 871.157 L1683.43 874.444 L1685 877.703 L1686.57 880.932 L1688.14 884.133 L1689.71 887.303 L1691.28 890.444 L1692.85 893.555 L1694.42 896.634 L1696 899.683 L1697.57 902.701 L1699.14 905.687 L1700.71 908.641 L1702.28 911.563 L1703.85 914.453 L1705.42 917.31 L1707 920.135 L1708.57 922.927 L1710.14 925.686 L1711.71 928.411 L1713.28 931.104 L1714.85 933.763 L1716.42 936.388 L1717.99 938.98 L1719.57 941.539 L1721.14 944.064 L1722.71 946.555 L1724.28 949.012 L1725.85 951.436 L1727.42 953.826 L1728.99 956.182 L1730.56 958.505 L1732.14 960.795 L1733.71 963.05 L1735.28 965.273 L1736.85 967.462 L1738.42 969.618 L1739.99 971.74 L1741.56 973.83 L1743.14 975.887 L1744.71 977.911 L1746.28 979.903 L1747.85 981.862 L1749.42 983.79 L1750.99 985.685 L1752.56 987.548 L1754.13 989.38 L1755.71 991.18 L1757.28 992.95 L1758.85 994.688 L1760.42 996.396 L1761.99 998.073 L1763.56 999.72 L1765.13 1001.34 L1766.71 1002.92 L1768.28 1004.48 L1769.85 1006.01 L1771.42 1007.51 L1772.99 1008.98 L1774.56 1010.43 L1776.13 1011.84 L1777.7 1013.23 L1779.28 1014.59 L1780.85 1015.92 L1782.42 1017.23 L1783.99 1018.51 L1785.56 1019.76 L1787.13 1020.99 L1788.7 1022.2 L1790.28 1023.37 L1791.85 1024.53 L1793.42 1025.65 L1794.99 1026.76 L1796.56 1027.84 L1798.13 1028.9 L1799.7 1029.93 L1801.27 1030.94 L1802.85 1031.93 L1804.42 1032.9 L1805.99 1033.84 L1807.56 1034.76 L1809.13 1035.67 L1810.7 1036.55 L1812.27 1037.41 L1813.85 1038.25 L1815.42 1039.07 L1816.99 1039.87 L1818.56 1040.66 L1820.13 1041.42 L1821.7 1042.17 L1823.27 1042.89 L1824.84 1043.6 L1826.42 1044.29 L1826.42 1067.28 L1824.84 1067.28 L1823.27 1067.28 L1821.7 1067.28 L1820.13 1067.28 L1818.56 1067.28 L1816.99 1067.28 L1815.42 1067.28 L1813.85 1067.28 L1812.27 1067.28 L1810.7 1067.28 L1809.13 1067.28 L1807.56 1067.28 L1805.99 1067.28 L1804.42 1067.28 L1802.85 1067.28 L1801.27 1067.28 L1799.7 1067.28 L1798.13 1067.28 L1796.56 1067.28 L1794.99 1067.28 L1793.42 1067.28 L1791.85 1067.28 L1790.28 1067.28 L1788.7 1067.28 L1787.13 1067.28 L1785.56 1067.28 L1783.99 1067.28 L1782.42 1067.28 L1780.85 1067.28 L1779.28 1067.28 L1777.7 1067.28 L1776.13 1067.28 L1774.56 1067.28 L1772.99 1067.28 L1771.42 1067.28 L1769.85 1067.28 L1768.28 1067.28 L1766.71 1067.28 L1765.13 1067.28 L1763.56 1067.28 L1761.99 1067.28 L1760.42 1067.28 L1758.85 1067.28 L1757.28 1067.28 L1755.71 1067.28 L1754.13 1067.28 L1752.56 1067.28 L1750.99 1067.28 L1749.42 1067.28 L1747.85 1067.28 L1746.28 1067.28 L1744.71 1067.28 L1743.14 1067.28 L1741.56 1067.28 L1739.99 1067.28 L1738.42 1067.28 L1736.85 1067.28 L1735.28 1067.28 L1733.71 1067.28 L1732.14 1067.28 L1730.56 1067.28 L1728.99 1067.28 L1727.42 1067.28 L1725.85 1067.28 L1724.28 1067.28 L1722.71 1067.28 L1721.14 1067.28 L1719.57 1067.28 L1717.99 1067.28 L1716.42 1067.28 L1714.85 1067.28 L1713.28 1067.28 L1711.71 1067.28 L1710.14 1067.28 L1708.57 1067.28 L1707 1067.28 L1705.42 1067.28 L1703.85 1067.28 L1702.28 1067.28 L1700.71 1067.28 L1699.14 1067.28 L1697.57 1067.28 L1696 1067.28 L1694.42 1067.28 L1692.85 1067.28 L1691.28 1067.28 L1689.71 1067.28 L1688.14 1067.28 L1686.57 1067.28 L1685 1067.28 L1683.43 1067.28 L1681.85 1067.28 L1680.28 1067.28 L1678.71 1067.28 L1677.14 1067.28 L1675.57 1067.28 L1674 1067.28 L1672.43 1067.28 L1670.85 1067.28 L1669.28 1067.28 L1667.71 1067.28 L1666.14 1067.28 L1664.57 1067.28 L1663 1067.28 L1661.43 1067.28 L1659.86 1067.28 L1658.28 1067.28 L1656.71 1067.28 L1655.14 1067.28 L1653.57 1067.28 L1652 1067.28 L1650.43 1067.28 L1648.86 1067.28 L1647.28 1067.28 L1645.71 1067.28 L1644.14 1067.28 L1642.57 1067.28 L1641 1067.28 L1639.43 1067.28 L1637.86 1067.28 L1636.29 1067.28 L1634.71 1067.28 L1633.14 1067.28 L1631.57 1067.28 L1630 1067.28 L1628.43 1067.28 L1626.86 1067.28 L1625.29 1067.28 L1623.71 1067.28 L1622.14 1067.28 L1620.57 1067.28 L1619 1067.28 L1617.43 1067.28 L1615.86 1067.28 L1614.29 1067.28 L1612.72 1067.28 L1611.14 1067.28 L1609.57 1067.28 L1608 1067.28 L1606.43 1067.28 L1604.86 1067.28 L1603.29 1067.28 L1601.72 1067.28 L1600.14 1067.28 L1598.57 1067.28 L1597 1067.28 L1595.43 1067.28 L1593.86 1067.28 L1592.29 1067.28 L1590.72 1067.28 L1589.15 1067.28 L1587.57 1067.28 L1586 1067.28 L1584.43 1067.28 L1582.86 1067.28 L1581.29 1067.28 L1579.72 1067.28 L1578.15 1067.28 L1576.58 1067.28 L1575 1067.28 L1573.43 1067.28 L1571.86 1067.28 L1570.29 1067.28 L1568.72 1067.28 L1567.15 1067.28 L1565.58 1067.28 L1564 1067.28 L1562.43 1067.28 L1560.86 1067.28 L1559.29 1067.28 L1557.72 1067.28 L1556.15 1067.28 L1554.58 1067.28 L1553.01 1067.28 L1551.43 1067.28 L1549.86 1067.28 L1548.29 1067.28 L1546.72 1067.28 L1545.15 1067.28 L1543.58 1067.28 L1542.01 1067.28 L1540.43 1067.28 L1538.86 1067.28 L1537.29 1067.28 L1535.72 1067.28 L1534.15 1067.28 L1532.58 1067.28 L1531.01 1067.28 L1529.44 1067.28 L1527.86 1067.28 L1526.29 1067.28 L1524.72 1067.28 L1523.15 1067.28 L1521.58 1067.28 L1520.01 1067.28 L1518.44 1067.28 L1516.86 1067.28 L1515.29 1067.28 L1513.72 1067.28 L1512.15 1067.28 L1510.58 1067.28 L1509.01 1067.28 L1507.44 1067.28 L1505.87 1067.28 L1504.29 1067.28 L1502.72 1067.28 L1501.15 1067.28 L1499.58 1067.28 L1498.01 1067.28 L1496.44 1067.28 L1494.87 1067.28 L1493.29 1067.28 L1491.72 1067.28 L1490.15 1067.28 L1488.58 1067.28 L1487.01 1067.28 L1485.44 1067.28 L1483.87 1067.28 L1482.3 1067.28 L1480.72 1067.28 L1479.15 1067.28 L1477.58 1067.28 L1476.01 1067.28 L1474.44 1067.28 L1472.87 1067.28 L1471.3 1067.28 L1469.73 1067.28 L1468.15 1067.28 L1466.58 1067.28 L1465.01 1067.28 L1463.44 1067.28 L1461.87 1067.28 L1460.3 1067.28 L1458.73 1067.28 L1457.15 1067.28 L1455.58 1067.28 L1454.01 1067.28 L1452.44 1067.28 L1450.87 1067.28 L1449.3 1067.28 L1447.73 1067.28 L1446.16 1067.28 L1444.58 1067.28 L1443.01 1067.28 L1441.44 1067.28 L1439.87 1067.28 L1438.3 1067.28 L1436.73 1067.28 L1435.16 1067.28 L1433.58 1067.28 L1432.01 1067.28 L1430.44 1067.28 L1428.87 1067.28 L1427.3 1067.28 L1425.73 1067.28 L1424.16 1067.28 L1422.59 1067.28 L1421.01 1067.28 L1419.44 1067.28 L1417.87 1067.28 L1416.3 1067.28 L1414.73 1067.28 L1413.16 1067.28 L1411.59 1067.28 L1410.01 1067.28 L1408.44 1067.28 L1406.87 1067.28 L1405.3 1067.28 L1403.73 1067.28 L1402.16 1067.28 L1400.59 1067.28 L1399.02 1067.28 L1397.44 1067.28 L1395.87 1067.28 L1394.3 1067.28 L1392.73 1067.28 L1391.16 1067.28 L1389.59 1067.28 L1388.02 1067.28 L1386.44 1067.28 L1384.87 1067.28 L1383.3 1067.28 L1381.73 1067.28 L1380.16 1067.28 L1378.59 1067.28 L1377.02 1067.28 L1375.45 1067.28 L1373.87 1067.28 L1372.3 1067.28 L1370.73 1067.28 L1369.16 1067.28 L1367.59 1067.28 L1366.02 1067.28 L1364.45 1067.28 L1362.88 1067.28 L1361.3 1067.28 L1359.73 1067.28 L1358.16 1067.28 L1356.59 1067.28 L1355.02 1067.28 L1353.45 1067.28 L1351.88 1067.28 L1350.3 1067.28 L1348.73 1067.28 L1347.16 1067.28 L1345.59 1067.28 L1344.02 1067.28 L1342.45 1067.28 L1340.88 1067.28 L1339.31 1067.28 L1337.73 1067.28 L1336.16 1067.28 L1334.59 1067.28 L1333.02 1067.28 L1331.45 1067.28 L1329.88 1067.28 L1328.31 1067.28 L1326.73 1067.28 L1325.16 1067.28 L1323.59 1067.28 L1322.02 1067.28 L1320.45 1067.28 L1318.88 1067.28 L1317.31 1067.28 L1315.74 1067.28 L1314.16 1067.28 L1312.59 1067.28 L1311.02 1067.28 L1309.45 1067.28 L1307.88 1067.28 L1306.31 1067.28 L1304.74 1067.28 L1303.16 1067.28 L1301.59 1067.28 L1300.02 1067.28 L1298.45 1067.28 L1296.88 1067.28 L1295.31 1067.28 L1293.74 1067.28 L1292.17 1067.28 L1290.59 1067.28 L1289.02 1067.28 L1287.45 1067.28 L1285.88 1067.28 L1284.31 1067.28 L1282.74 1067.28 L1281.17 1067.28 L1279.59 1067.28 L1278.02 1067.28 L1276.45 1067.28 L1274.88 1067.28 L1273.31 1067.28 L1271.74 1067.28 L1270.17 1067.28 L1268.6 1067.28 L1267.02 1067.28 L1265.45 1067.28 L1263.88 1067.28 L1262.31 1067.28 L1260.74 1067.28 L1259.17 1067.28 L1257.6 1067.28 L1256.03 1067.28 L1254.45 1067.28 L1252.88 1067.28 L1251.31 1067.28 L1249.74 1067.28 L1248.17 1067.28 L1246.6 1067.28 L1245.03 1067.28 L1243.45 1067.28 L1241.88 1067.28 L1240.31 1067.28 L1238.74 1067.28 L1237.17 1067.28 L1235.6 1067.28 L1234.03 1067.28 L1232.46 1067.28 L1230.88 1067.28 L1229.31 1067.28 L1227.74 1067.28 L1226.17 1067.28 L1224.6 1067.28 L1223.03 1067.28 L1221.46 1067.28 L1219.88 1067.28 L1218.31 1067.28 L1216.74 1067.28 L1215.17 1067.28 L1213.6 1067.28 L1212.03 1067.28 L1210.46 1067.28 L1208.89 1067.28 L1207.31 1067.28 L1205.74 1067.28 L1204.17 1067.28 L1202.6 1067.28 L1201.03 1067.28 L1199.46 1067.28 L1197.89 1067.28 L1196.31 1067.28 L1194.74 1067.28 L1193.17 1067.28 L1191.6 1067.28 L1190.03 1067.28 L1188.46 1067.28 L1186.89 1067.28 L1185.32 1067.28 L1183.74 1067.28 L1182.17 1067.28 L1180.6 1067.28 L1179.03 1067.28 L1177.46 1067.28 L1175.89 1067.28 L1174.32 1067.28 L1172.74 1067.28 L1171.17 1067.28 L1169.6 1067.28 L1168.03 1067.28 L1166.46 1067.28 L1164.89 1067.28 L1163.32 1067.28 L1161.75 1067.28 L1160.17 1067.28 L1158.6 1067.28 L1157.03 1067.28 L1155.46 1067.28 L1153.89 1067.28 L1152.32 1067.28 L1150.75 1067.28 L1149.18 1067.28 L1147.6 1067.28 L1146.03 1067.28 L1144.46 1067.28 L1142.89 1067.28 L1141.32 1067.28 L1139.75 1067.28 L1138.18 1067.28 L1136.6 1067.28 L1135.03 1067.28 L1133.46 1067.28 L1131.89 1067.28 L1130.32 1067.28 L1128.75 1067.28 L1127.18 1067.28 L1125.61 1067.28 L1124.03 1067.28 L1122.46 1067.28 L1120.89 1067.28 L1119.32 1067.28 L1117.75 1067.28 L1116.18 1067.28 L1114.61 1067.28 L1113.03 1067.28 L1111.46 1067.28 L1109.89 1067.28 L1108.32 1067.28 L1106.75 1067.28 L1105.18 1067.28 L1103.61 1067.28 L1102.04 1067.28 L1100.46 1067.28 L1098.89 1067.28 L1097.32 1067.28 L1095.75 1067.28 L1094.18 1067.28 L1092.61 1067.28 L1091.04 1067.28 L1089.46 1067.28 L1087.89 1067.28 L1086.32 1067.28 L1084.75 1067.28 L1083.18 1067.28 L1081.61 1067.28 L1080.04 1067.28 L1078.47 1067.28 L1076.89 1067.28 L1075.32 1067.28 L1073.75 1067.28 L1072.18 1067.28 L1070.61 1067.28 L1069.04 1067.28 L1067.47 1067.28 L1065.89 1067.28 L1064.32 1067.28 L1062.75 1067.28 L1061.18 1067.28 L1059.61 1067.28 L1058.04 1067.28 L1056.47 1067.28 L1054.9 1067.28 L1053.32 1067.28 L1051.75 1067.28 L1050.18 1067.28 L1048.61 1067.28 L1047.04 1067.28 L1045.47 1067.28 L1043.9 1067.28 L1042.33 1067.28 L1040.75 1067.28 L1039.18 1067.28 L1037.61 1067.28 L1036.04 1067.28 L1034.47 1067.28 L1032.9 1067.28 L1031.33 1067.28 L1029.75 1067.28 L1028.18 1067.28 L1026.61 1067.28 L1025.04 1067.28 L1023.47 1067.28 L1021.9 1067.28 L1020.33 1067.28 L1018.76 1067.28 L1017.18 1067.28 L1015.61 1067.28 L1014.04 1067.28 L1012.47 1067.28 L1010.9 1067.28 L1009.33 1067.28 L1007.76 1067.28 L1006.18 1067.28 L1004.61 1067.28 L1003.04 1067.28 L1001.47 1067.28 L999.899 1067.28 L998.328 1067.28 L996.757 1067.28 L995.185 1067.28 L993.614 1067.28 L992.043 1067.28 L990.471 1067.28 L988.9 1067.28 L987.329 1067.28 L985.757 1067.28 L984.186 1067.28 L982.615 1067.28 L981.043 1067.28 L979.472 1067.28 L977.901 1067.28 L976.33 1067.28 L974.758 1067.28 L973.187 1067.28 L971.616 1067.28 L970.044 1067.28 L968.473 1067.28 L966.902 1067.28 L965.33 1067.28 L963.759 1067.28 L962.188 1067.28 L960.616 1067.28 L959.045 1067.28 L957.474 1067.28 L955.902 1067.28 L954.331 1067.28 L952.76 1067.28 L951.188 1067.28 L949.617 1067.28 L948.046 1067.28 L946.474 1067.28 L944.903 1067.28 L943.332 1067.28 L941.76 1067.28 L940.189 1067.28 L938.618 1067.28 L937.046 1067.28 L935.475 1067.28 L933.904 1067.28 L932.332 1067.28 L930.761 1067.28 L929.19 1067.28 L927.618 1067.28 L926.047 1067.28 L924.476 1067.28 L922.905 1067.28 L921.333 1067.28 L919.762 1067.28 L918.191 1067.28 L916.619 1067.28 L915.048 1067.28 L913.477 1067.28 L911.905 1067.28 L910.334 1067.28 L908.763 1067.28 L907.191 1067.28 L905.62 1067.28 L904.049 1067.28 L902.477 1067.28 L900.906 1067.28 L899.335 1067.28 L897.763 1067.28 L896.192 1067.28 L894.621 1067.28 L893.049 1067.28 L891.478 1067.28 L889.907 1067.28 L888.335 1067.28 L886.764 1067.28 L885.193 1067.28 L883.621 1067.28 L882.05 1067.28 L880.479 1067.28 L878.907 1067.28 L877.336 1067.28 L875.765 1067.28 L874.193 1067.28 L872.622 1067.28 L871.051 1067.28 L869.48 1067.28 L867.908 1067.28 L866.337 1067.28 L864.766 1067.28 L863.194 1067.28 L861.623 1067.28 L860.052 1067.28 L858.48 1067.28 L856.909 1067.28 L855.338 1067.28 L853.766 1067.28 L852.195 1067.28 L850.624 1067.28 L849.052 1067.28 L847.481 1067.28 L845.91 1067.28 L844.338 1067.28 L842.767 1067.28 L841.196 1067.28 L839.624 1067.28 L838.053 1067.28 L836.482 1067.28 L834.91 1067.28 L833.339 1067.28 L831.768 1067.28 L830.196 1067.28 L828.625 1067.28 L827.054 1067.28 L825.482 1067.28 L823.911 1067.28 L822.34 1067.28 L820.768 1067.28 L819.197 1067.28 L817.626 1067.28 L816.054 1067.28 L814.483 1067.28 L812.912 1067.28 L811.341 1067.28 L809.769 1067.28 L808.198 1067.28 L806.627 1067.28 L805.055 1067.28 L803.484 1067.28 L801.913 1067.28 L800.341 1067.28 L798.77 1067.28 L797.199 1067.28 L795.627 1067.28 L794.056 1067.28 L792.485 1067.28 L790.913 1067.28 L789.342 1067.28 L787.771 1067.28 L786.199 1067.28 L784.628 1067.28 L783.057 1067.28 L781.485 1067.28 L779.914 1067.28 L778.343 1067.28 L776.771 1067.28 L775.2 1067.28 L773.629 1067.28 L772.057 1067.28 L770.486 1067.28 L768.915 1067.28 L767.343 1067.28 L765.772 1067.28 L764.201 1067.28 L762.629 1067.28 L761.058 1067.28 L759.487 1067.28 L757.916 1067.28 L756.344 1067.28 L754.773 1067.28 L753.202 1067.28 L751.63 1067.28 L750.059 1067.28 L748.488 1067.28 L746.916 1067.28 L745.345 1067.28 L743.774 1067.28 L742.202 1067.28 L740.631 1067.28 L739.06 1067.28 L737.488 1067.28 L735.917 1067.28 L734.346 1067.28 L732.774 1067.28 L731.203 1067.28 L729.632 1067.28 L728.06 1067.28 L726.489 1067.28 L724.918 1067.28 L723.346 1067.28 L721.775 1067.28 L720.204 1067.28 L718.632 1067.28 L717.061 1067.28 L715.49 1067.28 L713.918 1067.28 L712.347 1067.28 L710.776 1067.28 L709.204 1067.28 L707.633 1067.28 L706.062 1067.28 L704.491 1067.28 L702.919 1067.28 L701.348 1067.28 L699.777 1067.28 L698.205 1067.28 L696.634 1067.28 L695.063 1067.28 L693.491 1067.28 L691.92 1067.28 L690.349 1067.28 L688.777 1067.28 L687.206 1067.28 L685.635 1067.28 L684.063 1067.28 L682.492 1067.28 L680.921 1067.28 L679.349 1067.28 L677.778 1067.28 L676.207 1067.28 L674.635 1067.28 L673.064 1067.28 L671.493 1067.28 L669.921 1067.28 L668.35 1067.28 L666.779 1067.28 L665.207 1067.28 L663.636 1067.28 L662.065 1067.28 L660.493 1067.28 L658.922 1067.28 L657.351 1067.28 L655.779 1067.28 L654.208 1067.28 L652.637 1067.28 L651.066 1067.28 L649.494 1067.28 L647.923 1067.28 L646.352 1067.28 L644.78 1067.28 L643.209 1067.28 L641.638 1067.28 L640.066 1067.28 L638.495 1067.28 L636.924 1067.28 L635.352 1067.28 L633.781 1067.28 L632.21 1067.28 L630.638 1067.28 L629.067 1067.28 L627.496 1067.28 L625.924 1067.28 L624.353 1067.28 L622.782 1067.28 L621.21 1067.28 L619.639 1067.28 L618.068 1067.28 L616.496 1067.28 L614.925 1067.28 L613.354 1067.28 L611.782 1067.28 L610.211 1067.28 L608.64 1067.28 L607.068 1067.28 L605.497 1067.28 L603.926 1067.28 L602.354 1067.28 L600.783 1067.28 L599.212 1067.28 L597.641 1067.28 L596.069 1067.28 L594.498 1067.28 L592.927 1067.28 L591.355 1067.28 L589.784 1067.28 L588.213 1067.28 L586.641 1067.28 L585.07 1067.28 L583.499 1067.28 L581.927 1067.28 L580.356 1067.28 L578.785 1067.28 L577.213 1067.28 L575.642 1067.28 L574.071 1067.28 L572.499 1067.28 L570.928 1067.28 L569.357 1067.28 L567.785 1067.28 L566.214 1067.28 L564.643 1067.28 L563.071 1067.28 L561.5 1067.28 L559.929 1067.28 L558.357 1067.28 L556.786 1067.28 L555.215 1067.28 L553.643 1067.28 L552.072 1067.28 L550.501 1067.28 L548.929 1067.28 L547.358 1067.28 L545.787 1067.28 L544.216 1067.28 L542.644 1067.28 L541.073 1067.28 L539.502 1067.28 L537.93 1067.28 L536.359 1067.28 L534.788 1067.28 L533.216 1067.28 L531.645 1067.28 L530.074 1067.28 L528.502 1067.28 L526.931 1067.28 L525.36 1067.28 L523.788 1067.28 L522.217 1067.28 L520.646 1067.28 L519.074 1067.28 L517.503 1067.28 L515.932 1067.28 L514.36 1067.28 L512.789 1067.28 L511.218 1067.28 L509.646 1067.28 L508.075 1067.28 L506.504 1067.28 L504.932 1067.28 L503.361 1067.28 L501.79 1067.28 L500.218 1067.28 L498.647 1067.28 L497.076 1067.28 L495.504 1067.28 L493.933 1067.28 L492.362 1067.28 L490.791 1067.28 L489.219 1067.28 L487.648 1067.28 L486.077 1067.28 L484.505 1067.28 L482.934 1067.28 L481.363 1067.28 L479.791 1067.28 L478.22 1067.28 L476.649 1067.28 L475.077 1067.28 L473.506 1067.28 L471.935 1067.28 L470.363 1067.28 L468.792 1067.28 L467.221 1067.28 L465.649 1067.28 L464.078 1067.28 L462.507 1067.28 L460.935 1067.28 L459.364 1067.28 L457.793 1067.28 L456.221 1067.28 L454.65 1067.28 L453.079 1067.28 L451.507 1067.28 L449.936 1067.28 L448.365 1067.28 L446.793 1067.28 L445.222 1067.28 L443.651 1067.28 L442.079 1067.28 L440.508 1067.28 L438.937 1067.28 L437.366 1067.28 L435.794 1067.28 L434.223 1067.28 L432.652 1067.28 L431.08 1067.28 L429.509 1067.28 L427.938 1067.28 L426.366 1067.28 L424.795 1067.28 L423.224 1067.28 L421.652 1067.28 L420.081 1067.28 L418.51 1067.28 L416.938 1067.28 L415.367 1067.28 L413.796 1067.28 L412.224 1067.28 L410.653 1067.28 L409.082 1067.28 L407.51 1067.28 L405.939 1067.28 L404.368 1067.28 L402.796 1067.28 L401.225 1067.28 L399.654 1067.28 L398.082 1067.28 L396.511 1067.28 L394.94 1067.28 L393.368 1067.28 L391.797 1067.28 L390.226 1067.28 L388.654 1067.28 L387.083 1067.28 L385.512 1067.28 L383.94 1067.28 L382.369 1067.28 L380.798 1067.28 L379.227 1067.28 L377.655 1067.28 L376.084 1067.28 L374.513 1067.28 L372.941 1067.28 L371.37 1067.28 L369.799 1067.28 L368.227 1067.28 L366.656 1067.28 L365.085 1067.28 L363.513 1067.28 L361.942 1067.28 L360.371 1067.28 L358.799 1067.28 L357.228 1067.28 L355.657 1067.28 L354.085 1067.28 L352.514 1067.28 L350.943 1067.28 L349.371 1067.28 L347.8 1067.28 L346.229 1067.28 L344.657 1067.28 L343.086 1067.28 L341.515 1067.28 L339.943 1067.28 L338.372 1067.28 L336.801 1067.28 L335.229 1067.28 L333.658 1067.28 L332.087 1067.28 L330.515 1067.28 L328.944 1067.28 L327.373 1067.28 L325.802 1067.28 L324.23 1067.28 L322.659 1067.28 L321.088 1067.28 L319.516 1067.28 L317.945 1067.28 L316.374 1067.28 L314.802 1067.28 L313.231 1067.28 L311.66 1067.28 L310.088 1067.28 L308.517 1067.28 L306.946 1067.28 L305.374 1067.28 L303.803 1067.28 L302.232 1067.28 L300.66 1067.28 L299.089 1067.28 L297.518 1067.28 L295.946 1067.28 L294.375 1067.28 L292.804 1067.28 L291.232 1067.28 L289.661 1067.28 L288.09 1067.28 L286.518 1067.28 L284.947 1067.28 L283.376 1067.28 L281.804 1067.28 L280.233 1067.28 L278.662 1067.28 L277.09 1067.28 L275.519 1067.28 L273.948 1067.28 L272.377 1067.28 L270.805 1067.28 L269.234 1067.28 L267.663 1067.28 L266.091 1067.28 L264.52 1067.28 L262.949 1067.28 L261.377 1067.28 L259.806 1067.28 L258.235 1067.28 L256.663 1067.28  Z" fill="#ff7e0d" fill-rule="evenodd" fill-opacity="0.1"/>
<polyline clip-path="url(#clip552)" style="stroke:#ff7e0d; stroke-linecap:round; stroke-linejoin:round; stroke-width:12.0013; stroke-opacity:1; fill:none" points="256.663,987.269 258.235,986.182 259.806,985.084 261.377,983.973 262.949,982.85 264.52,981.715 266.091,980.569 267.663,979.41 269.234,978.238 270.805,977.055 272.377,975.858 273.948,974.65 275.519,973.428 277.09,972.195 278.662,970.948 280.233,969.688 281.804,968.416 283.376,967.131 284.947,965.832 286.518,964.521 288.09,963.196 289.661,961.858 291.232,960.506 292.804,959.142 294.375,957.763 295.946,956.371 297.518,954.966 299.089,953.547 300.66,952.114 302.232,950.667 303.803,949.206 305.374,947.731 306.946,946.242 308.517,944.739 310.088,943.222 311.66,941.691 313.231,940.145 314.802,938.585 316.374,937.011 317.945,935.422 319.516,933.818 321.088,932.2 322.659,930.567 324.23,928.919 325.802,927.257 327.373,925.579 328.944,923.887 330.515,922.18 332.087,920.458 333.658,918.72 335.229,916.968 336.801,915.2 338.372,913.417 339.943,911.619 341.515,909.805 343.086,907.976 344.657,906.132 346.229,904.272 347.8,902.397 349.371,900.506 350.943,898.599 352.514,896.677 354.085,894.739 355.657,892.786 357.228,890.816 358.799,888.831 360.371,886.83 361.942,884.814 363.513,882.781 365.085,880.732 366.656,878.668 368.227,876.587 369.799,874.491 371.37,872.378 372.941,870.25 374.513,868.105 376.084,865.945 377.655,863.768 379.227,861.575 380.798,859.366 382.369,857.141 383.94,854.899 385.512,852.642 387.083,850.368 388.654,848.078 390.226,845.772 391.797,843.45 393.368,841.112 394.94,838.757 396.511,836.386 398.082,833.999 399.654,831.596 401.225,829.177 402.796,826.741 404.368,824.29 405.939,821.822 407.51,819.338 409.082,816.838 410.653,814.322 412.224,811.79 413.796,809.242 415.367,806.678 416.938,804.098 418.51,801.502 420.081,798.889 421.652,796.262 423.224,793.618 424.795,790.958 426.366,788.283 427.938,785.592 429.509,782.885 431.08,780.162 432.652,777.424 434.223,774.671 435.794,771.901 437.366,769.117 438.937,766.317 440.508,763.501 442.079,760.671 443.651,757.825 445.222,754.964 446.793,752.088 448.365,749.197 449.936,746.291 451.507,743.37 453.079,740.434 454.65,737.484 456.221,734.519 457.793,731.539 459.364,728.545 460.935,725.537 462.507,722.514 464.078,719.477 465.649,716.426 467.221,713.361 468.792,710.283 470.363,707.19 471.935,704.084 473.506,700.964 475.077,697.83 476.649,694.684 478.22,691.524 479.791,688.35 481.363,685.164 482.934,681.965 484.505,678.753 486.077,675.529 487.648,672.292 489.219,669.043 490.791,665.781 492.362,662.507 493.933,659.222 495.504,655.924 497.076,652.615 498.647,649.294 500.218,645.962 501.79,642.619 503.361,639.264 504.932,635.899 506.504,632.523 508.075,629.136 509.646,625.739 511.218,622.331 512.789,618.913 514.36,615.486 515.932,612.048 517.503,608.601 519.074,605.145 520.646,601.679 522.217,598.204 523.788,594.721 525.36,591.228 526.931,587.727 528.502,584.218 530.074,580.701 531.645,577.176 533.216,573.643 534.788,570.102 536.359,566.554 537.93,562.999 539.502,559.437 541.073,555.869 542.644,552.294 544.216,548.712 545.787,545.125 547.358,541.532 548.929,537.933 550.501,534.328 552.072,530.719 553.643,527.104 555.215,523.485 556.786,519.861 558.357,516.233 559.929,512.601 561.5,508.965 563.071,505.326 564.643,501.683 566.214,498.037 567.785,494.389 569.357,490.737 570.928,487.084 572.499,483.428 574.071,479.77 575.642,476.111 577.213,472.451 578.785,468.789 580.356,465.127 581.927,461.464 583.499,457.801 585.07,454.138 586.641,450.475 588.213,446.812 589.784,443.151 591.355,439.49 592.927,435.83 594.498,432.173 596.069,428.517 597.641,424.863 599.212,421.211 600.783,417.563 602.354,413.917 603.926,410.274 605.497,406.635 607.068,403 608.64,399.369 610.211,395.742 611.782,392.12 613.354,388.503 614.925,384.891 616.496,381.285 618.068,377.684 619.639,374.09 621.21,370.502 622.782,366.92 624.353,363.346 625.924,359.779 627.496,356.219 629.067,352.668 630.638,349.124 632.21,345.589 633.781,342.063 635.352,338.546 636.924,335.038 638.495,331.54 640.066,328.052 641.638,324.574 643.209,321.106 644.78,317.65 646.352,314.204 647.923,310.77 649.494,307.348 651.066,303.938 652.637,300.54 654.208,297.155 655.779,293.783 657.351,290.424 658.922,287.078 660.493,283.747 662.065,280.429 663.636,277.126 665.207,273.838 666.779,270.565 668.35,267.307 669.921,264.065 671.493,260.839 673.064,257.629 674.635,254.436 676.207,251.26 677.778,248.1 679.349,244.958 680.921,241.834 682.492,238.728 684.063,235.64 685.635,232.571 687.206,229.52 688.777,226.489 690.349,223.477 691.92,220.485 693.491,217.513 695.063,214.562 696.634,211.631 698.205,208.721 699.777,205.832 701.348,202.964 702.919,200.119 704.491,197.295 706.062,194.493 707.633,191.715 709.204,188.959 710.776,186.226 712.347,183.516 713.918,180.83 715.49,178.168 717.061,175.53 718.632,172.917 720.204,170.328 721.775,167.765 723.346,165.226 724.918,162.713 726.489,160.226 728.06,157.764 729.632,155.329 731.203,152.921 732.774,150.539 734.346,148.184 735.917,145.856 737.488,143.555 739.06,141.283 740.631,139.038 742.202,136.821 743.774,134.633 745.345,132.473 746.916,130.342 748.488,128.24 750.059,126.167 751.63,124.124 753.202,122.11 754.773,120.126 756.344,118.172 757.916,116.249 759.487,114.356 761.058,112.494 762.629,110.662 764.201,108.862 765.772,107.093 767.343,105.355 768.915,103.649 770.486,101.975 772.057,100.332 773.629,98.7222 775.2,97.1443 776.771,95.5989 778.343,94.0862 779.914,92.6063 781.485,91.1593 783.057,89.7454 784.628,88.3649 786.199,87.0177 787.771,85.704 789.342,84.4241 790.913,83.178 792.485,81.9659 794.056,80.7878 795.627,79.644 797.199,78.5345 798.77,77.4594 800.341,76.419 801.913,75.4132 803.484,74.4422 805.055,73.5061 806.627,72.605 808.198,71.739 809.769,70.9082 811.341,70.1126 812.912,69.3524 814.483,68.6277 816.054,67.9385 817.626,67.2849 819.197,66.6669 820.768,66.0847 822.34,65.5382 823.911,65.0277 825.482,64.553 827.054,64.1143 828.625,63.7116 830.196,63.3449 831.768,63.0143 833.339,62.7199 834.91,62.4616 836.482,62.2395 838.053,62.0536 839.624,61.9039 841.196,61.7905 842.767,61.7133 844.338,61.6724 845.91,61.6677 847.481,61.6994 849.052,61.7672 850.624,61.8714 852.195,62.0118 853.766,62.1884 855.338,62.4012 856.909,62.6502 858.48,62.9354 860.052,63.2567 861.623,63.614 863.194,64.0075 864.766,64.4369 866.337,64.9023 867.908,65.4036 869.48,65.9408 871.051,66.5138 872.622,67.1225 874.193,67.7668 875.765,68.4468 877.336,69.1623 878.907,69.9132 880.479,70.6995 882.05,71.5211 883.621,72.3779 885.193,73.2697 886.764,74.1966 888.335,75.1583 889.907,76.1549 891.478,77.1861 893.049,78.2519 894.621,79.3521 896.192,80.4867 897.763,81.6555 899.335,82.8584 900.906,84.0953 902.477,85.3659 904.049,86.6703 905.62,88.0082 907.191,89.3795 908.763,90.784 910.334,92.2217 911.905,93.6923 913.477,95.1957 915.048,96.7317 916.619,98.3001 918.191,99.9009 919.762,101.534 921.333,103.199 922.905,104.895 924.476,106.623 926.047,108.383 927.618,110.174 929.19,111.995 930.761,113.848 932.332,115.731 933.904,117.645 935.475,119.589 937.046,121.562 938.618,123.566 940.189,125.599 941.76,127.662 943.332,129.754 944.903,131.874 946.474,134.024 948.046,136.201 949.617,138.407 951.188,140.641 952.76,142.903 954.331,145.193 955.902,147.509 957.474,149.853 959.045,152.223 960.616,154.62 962.188,157.044 963.759,159.493 965.33,161.968 966.902,164.469 968.473,166.994 970.044,169.545 971.616,172.121 973.187,174.721 974.758,177.345 976.33,179.993 977.901,182.664 979.472,185.359 981.043,188.077 982.615,190.818 984.186,193.581 985.757,196.367 987.329,199.174 988.9,202.003 990.471,204.853 992.043,207.724 993.614,210.616 995.185,213.528 996.757,216.461 998.328,219.413 999.899,222.384 1001.47,225.375 1003.04,228.385 1004.61,231.413 1006.18,234.459 1007.76,237.523 1009.33,240.605 1010.9,243.704 1012.47,246.82 1014.04,249.953 1015.61,253.101 1017.18,256.266 1018.76,259.446 1020.33,262.642 1021.9,265.852 1023.47,269.078 1025.04,272.317 1026.61,275.57 1028.18,278.837 1029.75,282.117 1031.33,285.41 1032.9,288.715 1034.47,292.033 1036.04,295.362 1037.61,298.703 1039.18,302.055 1040.75,305.417 1042.33,308.79 1043.9,312.173 1045.47,315.566 1047.04,318.968 1048.61,322.379 1050.18,325.798 1051.75,329.226 1053.32,332.661 1054.9,336.104 1056.47,339.554 1058.04,343.01 1059.61,346.473 1061.18,349.942 1062.75,353.416 1064.32,356.895 1065.89,360.38 1067.47,363.868 1069.04,367.36 1070.61,370.857 1072.18,374.356 1073.75,377.858 1075.32,381.362 1076.89,384.869 1078.47,388.377 1080.04,391.886 1081.61,395.396 1083.18,398.906 1084.75,402.417 1086.32,405.927 1087.89,409.436 1089.46,412.943 1091.04,416.449 1092.61,419.953 1094.18,423.455 1095.75,426.953 1097.32,430.449 1098.89,433.94 1100.46,437.427 1102.04,440.909 1103.61,444.387 1105.18,447.859 1106.75,451.325 1108.32,454.784 1109.89,458.237 1111.46,461.682 1113.03,465.12 1114.61,468.549 1116.18,471.97 1117.75,475.382 1119.32,478.784 1120.89,482.177 1122.46,485.559 1124.03,488.93 1125.61,492.29 1127.18,495.638 1128.75,498.973 1130.32,502.297 1131.89,505.606 1133.46,508.903 1135.03,512.185 1136.6,515.452 1138.18,518.705 1139.75,521.942 1141.32,525.163 1142.89,528.367 1144.46,531.555 1146.03,534.725 1147.6,537.877 1149.18,541.011 1150.75,544.125 1152.32,547.221 1153.89,550.297 1155.46,553.352 1157.03,556.387 1158.6,559.4 1160.17,562.391 1161.75,565.361 1163.32,568.307 1164.89,571.23 1166.46,574.13 1168.03,577.005 1169.6,579.855 1171.17,582.68 1172.74,585.48 1174.32,588.253 1175.89,591 1177.46,593.719 1179.03,596.411 1180.6,599.075 1182.17,601.71 1183.74,604.316 1185.32,606.892 1186.89,609.438 1188.46,611.954 1190.03,614.438 1191.6,616.891 1193.17,619.312 1194.74,621.701 1196.31,624.056 1197.89,626.378 1199.46,628.666 1201.03,630.92 1202.6,633.139 1204.17,635.323 1205.74,637.47 1207.31,639.582 1208.89,641.657 1210.46,643.695 1212.03,645.696 1213.6,647.658 1215.17,649.582 1216.74,651.467 1218.31,653.313 1219.88,655.12 1221.46,656.886 1223.03,658.612 1224.6,660.297 1226.17,661.941 1227.74,663.543 1229.31,665.103 1230.88,666.621 1232.46,668.096 1234.03,669.528 1235.6,670.917 1237.17,672.262 1238.74,673.563 1240.31,674.819 1241.88,676.031 1243.45,677.198 1245.03,678.32 1246.6,679.396 1248.17,680.426 1249.74,681.41 1251.31,682.348 1252.88,683.24 1254.45,684.084 1256.03,684.882 1257.6,685.633 1259.17,686.336 1260.74,686.992 1262.31,687.6 1263.88,688.161 1265.45,688.674 1267.02,689.138 1268.6,689.555 1270.17,689.923 1271.74,690.243 1273.31,690.515 1274.88,690.738 1276.45,690.913 1278.02,691.04 1279.59,691.119 1281.17,691.149 1282.74,691.131 1284.31,691.065 1285.88,690.95 1287.45,690.788 1289.02,690.578 1290.59,690.32 1292.17,690.014 1293.74,689.661 1295.31,689.261 1296.88,688.814 1298.45,688.32 1300.02,687.78 1301.59,687.193 1303.16,686.561 1304.74,685.882 1306.31,685.159 1307.88,684.391 1309.45,683.578 1311.02,682.721 1312.59,681.82 1314.16,680.876 1315.74,679.889 1317.31,678.859 1318.88,677.788 1320.45,676.675 1322.02,675.522 1323.59,674.328 1325.16,673.095 1326.73,671.822 1328.31,670.512 1329.88,669.163 1331.45,667.777 1333.02,666.355 1334.59,664.897 1336.16,663.404 1337.73,661.876 1339.31,660.315 1340.88,658.722 1342.45,657.096 1344.02,655.44 1345.59,653.753 1347.16,652.037 1348.73,650.292 1350.3,648.52 1351.88,646.721 1353.45,644.896 1355.02,643.047 1356.59,641.174 1358.16,639.277 1359.73,637.36 1361.3,635.421 1362.88,633.463 1364.45,631.486 1366.02,629.491 1367.59,627.48 1369.16,625.453 1370.73,623.412 1372.3,621.358 1373.87,619.292 1375.45,617.215 1377.02,615.128 1378.59,613.033 1380.16,610.93 1381.73,608.822 1383.3,606.708 1384.87,604.59 1386.44,602.47 1388.02,600.349 1389.59,598.228 1391.16,596.108 1392.73,593.99 1394.3,591.876 1395.87,589.767 1397.44,587.665 1399.02,585.569 1400.59,583.483 1402.16,581.407 1403.73,579.342 1405.3,577.289 1406.87,575.251 1408.44,573.228 1410.01,571.221 1411.59,569.232 1413.16,567.261 1414.73,565.311 1416.3,563.383 1417.87,561.477 1419.44,559.596 1421.01,557.739 1422.59,555.909 1424.16,554.107 1425.73,552.334 1427.3,550.591 1428.87,548.879 1430.44,547.2 1432.01,545.554 1433.58,543.944 1435.16,542.369 1436.73,540.831 1438.3,539.332 1439.87,537.872 1441.44,536.453 1443.01,535.075 1444.58,533.739 1446.16,532.448 1447.73,531.2 1449.3,529.999 1450.87,528.844 1452.44,527.737 1454.01,526.678 1455.58,525.668 1457.15,524.709 1458.73,523.801 1460.3,522.945 1461.87,522.142 1463.44,521.393 1465.01,520.697 1466.58,520.057 1468.15,519.473 1469.73,518.946 1471.3,518.475 1472.87,518.063 1474.44,517.708 1476.01,517.413 1477.58,517.178 1479.15,517.002 1480.72,516.887 1482.3,516.833 1483.87,516.841 1485.44,516.91 1487.01,517.042 1488.58,517.236 1490.15,517.494 1491.72,517.814 1493.29,518.198 1494.87,518.645 1496.44,519.157 1498.01,519.732 1499.58,520.371 1501.15,521.075 1502.72,521.843 1504.29,522.675 1505.87,523.571 1507.44,524.532 1509.01,525.556 1510.58,526.645 1512.15,527.798 1513.72,529.014 1515.29,530.294 1516.86,531.638 1518.44,533.044 1520.01,534.514 1521.58,536.045 1523.15,537.639 1524.72,539.295 1526.29,541.012 1527.86,542.79 1529.44,544.629 1531.01,546.527 1532.58,548.485 1534.15,550.502 1535.72,552.578 1537.29,554.711 1538.86,556.901 1540.43,559.148 1542.01,561.45 1543.58,563.808 1545.15,566.22 1546.72,568.685 1548.29,571.204 1549.86,573.775 1551.43,576.397 1553.01,579.069 1554.58,581.791 1556.15,584.562 1557.72,587.38 1559.29,590.245 1560.86,593.157 1562.43,596.113 1564,599.114 1565.58,602.157 1567.15,605.243 1568.72,608.37 1570.29,611.536 1571.86,614.742 1573.43,617.986 1575,621.267 1576.58,624.583 1578.15,627.935 1579.72,631.319 1581.29,634.737 1582.86,638.186 1584.43,641.665 1586,645.174 1587.57,648.71 1589.15,652.274 1590.72,655.864 1592.29,659.478 1593.86,663.115 1595.43,666.775 1597,670.457 1598.57,674.158 1600.14,677.878 1601.72,681.616 1603.29,685.371 1604.86,689.141 1606.43,692.926 1608,696.724 1609.57,700.534 1611.14,704.354 1612.72,708.185 1614.29,712.024 1615.86,715.871 1617.43,719.725 1619,723.583 1620.57,727.447 1622.14,731.313 1623.71,735.181 1625.29,739.051 1626.86,742.92 1628.43,746.788 1630,750.655 1631.57,754.518 1633.14,758.377 1634.71,762.231 1636.29,766.079 1637.86,769.92 1639.43,773.753 1641,777.577 1642.57,781.391 1644.14,785.194 1645.71,788.985 1647.28,792.764 1648.86,796.53 1650.43,800.281 1652,804.018 1653.57,807.738 1655.14,811.441 1656.71,815.127 1658.28,818.795 1659.86,822.444 1661.43,826.073 1663,829.681 1664.57,833.269 1666.14,836.835 1667.71,840.378 1669.28,843.898 1670.85,847.394 1672.43,850.866 1674,854.313 1675.57,857.735 1677.14,861.131 1678.71,864.5 1680.28,867.843 1681.85,871.157 1683.43,874.444 1685,877.703 1686.57,880.932 1688.14,884.133 1689.71,887.303 1691.28,890.444 1692.85,893.555 1694.42,896.634 1696,899.683 1697.57,902.701 1699.14,905.687 1700.71,908.641 1702.28,911.563 1703.85,914.453 1705.42,917.31 1707,920.135 1708.57,922.927 1710.14,925.686 1711.71,928.411 1713.28,931.104 1714.85,933.763 1716.42,936.388 1717.99,938.98 1719.57,941.539 1721.14,944.064 1722.71,946.555 1724.28,949.012 1725.85,951.436 1727.42,953.826 1728.99,956.182 1730.56,958.505 1732.14,960.795 1733.71,963.05 1735.28,965.273 1736.85,967.462 1738.42,969.618 1739.99,971.74 1741.56,973.83 1743.14,975.887 1744.71,977.911 1746.28,979.903 1747.85,981.862 1749.42,983.79 1750.99,985.685 1752.56,987.548 1754.13,989.38 1755.71,991.18 1757.28,992.95 1758.85,994.688 1760.42,996.396 1761.99,998.073 1763.56,999.72 1765.13,1001.34 1766.71,1002.92 1768.28,1004.48 1769.85,1006.01 1771.42,1007.51 1772.99,1008.98 1774.56,1010.43 1776.13,1011.84 1777.7,1013.23 1779.28,1014.59 1780.85,1015.92 1782.42,1017.23 1783.99,1018.51 1785.56,1019.76 1787.13,1020.99 1788.7,1022.2 1790.28,1023.37 1791.85,1024.53 1793.42,1025.65 1794.99,1026.76 1796.56,1027.84 1798.13,1028.9 1799.7,1029.93 1801.27,1030.94 1802.85,1031.93 1804.42,1032.9 1805.99,1033.84 1807.56,1034.76 1809.13,1035.67 1810.7,1036.55 1812.27,1037.41 1813.85,1038.25 1815.42,1039.07 1816.99,1039.87 1818.56,1040.66 1820.13,1041.42 1821.7,1042.17 1823.27,1042.89 1824.84,1043.6 1826.42,1044.29 "/>
</svg>
